<?xml version="1.0" encoding="UTF-8" standalone="no"?>
<!-- Created with Inkscape (http://www.inkscape.org/) -->

<svg
   width="2560"
   height="1080"
   viewBox="0 0 677.33333 285.74999"
   version="1.1"
   id="svg5"
   inkscape:version="1.2.2 (732a01da63, 2022-12-09)"
   sodipodi:docname="Background_TiltedMenu.svg"
   xmlns:inkscape="http://www.inkscape.org/namespaces/inkscape"
   xmlns:sodipodi="http://sodipodi.sourceforge.net/DTD/sodipodi-0.dtd"
   xmlns:xlink="http://www.w3.org/1999/xlink"
   xmlns="http://www.w3.org/2000/svg"
   xmlns:svg="http://www.w3.org/2000/svg">
  <sodipodi:namedview
     id="namedview7"
     pagecolor="#ffffff"
     bordercolor="#000000"
     borderopacity="0.25"
     inkscape:showpageshadow="2"
     inkscape:pageopacity="0.0"
     inkscape:pagecheckerboard="0"
     inkscape:deskcolor="#d1d1d1"
     inkscape:document-units="mm"
     showgrid="false"
     inkscape:zoom="0.36925856"
     inkscape:cx="1320.2131"
     inkscape:cy="503.71209"
     inkscape:window-width="1920"
     inkscape:window-height="1009"
     inkscape:window-x="-8"
     inkscape:window-y="-8"
     inkscape:window-maximized="1"
     inkscape:current-layer="layer1"
     showguides="false" />
  <defs
     id="defs2">
    <linearGradient
       inkscape:collect="always"
       id="linearGradient12995">
      <stop
         style="stop-color:#326537;stop-opacity:1;"
         offset="0"
         id="stop12991" />
      <stop
         style="stop-color:#264f2a;stop-opacity:1;"
         offset="1"
         id="stop12993" />
    </linearGradient>
    <linearGradient
       inkscape:collect="always"
       id="linearGradient6733">
      <stop
         style="stop-color:#6eae68;stop-opacity:1;"
         offset="0"
         id="stop6729" />
      <stop
         style="stop-color:#1d481d;stop-opacity:1;"
         offset="1"
         id="stop6731" />
    </linearGradient>
    <linearGradient
       inkscape:collect="always"
       id="linearGradient4255">
      <stop
         style="stop-color:#509163;stop-opacity:1;"
         offset="0"
         id="stop4251" />
      <stop
         style="stop-color:#7ebd8e;stop-opacity:1;"
         offset="1"
         id="stop4253" />
    </linearGradient>
    <linearGradient
       inkscape:collect="always"
       id="linearGradient3311">
      <stop
         style="stop-color:#7ccca7;stop-opacity:1;"
         offset="0"
         id="stop3307" />
      <stop
         style="stop-color:#94d4a1;stop-opacity:1;"
         offset="1"
         id="stop3309" />
    </linearGradient>
    <linearGradient
       inkscape:collect="always"
       id="linearGradient1678">
      <stop
         style="stop-color:#afe9b6;stop-opacity:1;"
         offset="0"
         id="stop1674" />
      <stop
         style="stop-color:#b8eacc;stop-opacity:1;"
         offset="1"
         id="stop1676" />
    </linearGradient>
    <linearGradient
       inkscape:collect="always"
       id="linearGradient1540">
      <stop
         style="stop-color:#b4d4c3;stop-opacity:1;"
         offset="0"
         id="stop1538" />
      <stop
         style="stop-color:#57c182;stop-opacity:1;"
         offset="1"
         id="stop1536" />
    </linearGradient>
    <linearGradient
       inkscape:collect="always"
       xlink:href="#linearGradient1540"
       id="linearGradient1542"
       x1="310.25681"
       y1="-0.35850799"
       x2="313.33923"
       y2="284.10229"
       gradientUnits="userSpaceOnUse"
       gradientTransform="matrix(1,0,0,0.85515945,0,42.062318)" />
    <linearGradient
       inkscape:collect="always"
       xlink:href="#linearGradient1678"
       id="linearGradient1680"
       x1="313.92157"
       y1="0.28633904"
       x2="317.72049"
       y2="285.46365"
       gradientUnits="userSpaceOnUse"
       gradientTransform="translate(-0.07837003)" />
    <linearGradient
       inkscape:collect="always"
       xlink:href="#linearGradient3311"
       id="linearGradient3313"
       x1="313.8425"
       y1="0.23488268"
       x2="315.60867"
       y2="286.12872"
       gradientUnits="userSpaceOnUse"
       gradientTransform="translate(0,-21.495778)" />
    <linearGradient
       inkscape:collect="always"
       xlink:href="#linearGradient4255"
       id="linearGradient4257"
       x1="323.15784"
       y1="1.7193909"
       x2="324.80719"
       y2="284.03061"
       gradientUnits="userSpaceOnUse" />
    <linearGradient
       inkscape:collect="always"
       xlink:href="#linearGradient6733"
       id="linearGradient6735"
       x1="325.30743"
       y1="284.74713"
       x2="324.09067"
       y2="-0.4301869"
       gradientUnits="userSpaceOnUse" />
    <linearGradient
       inkscape:collect="always"
       xlink:href="#linearGradient12995"
       id="linearGradient12997"
       x1="547.13776"
       y1="88.793869"
       x2="547.75"
       y2="127.80671"
       gradientUnits="userSpaceOnUse" />
    <linearGradient
       inkscape:collect="always"
       xlink:href="#linearGradient12995"
       id="linearGradient13001"
       gradientUnits="userSpaceOnUse"
       x1="547.13776"
       y1="88.793869"
       x2="547.75"
       y2="127.80671"
       gradientTransform="matrix(-0.85857882,0,0,0.85857882,739.82031,-2.6346612)" />
    <linearGradient
       inkscape:collect="always"
       xlink:href="#linearGradient12995"
       id="linearGradient13005"
       gradientUnits="userSpaceOnUse"
       gradientTransform="matrix(0.92512993,0,0,0.92512993,-406.5146,-14.717001)"
       x1="547.13776"
       y1="88.793869"
       x2="547.75"
       y2="127.80671" />
  </defs>
  <g
     inkscape:label="Lager 1"
     inkscape:groupmode="layer"
     id="layer1"
     style="display:inline">
    <rect
       style="opacity:1;fill:url(#linearGradient1680);fill-opacity:1;stroke-width:0.264583"
       id="rect1504"
       width="677.33331"
       height="285.75"
       x="0.0048304601"
       y="2.2198382e-08"
       inkscape:label="Background - Lightest" />
    <path
       id="rect441"
       style="opacity:1;fill:url(#linearGradient1542);fill-opacity:1;stroke-width:0.231008"
       inkscape:label="Background - Bushes"
       d="m 55.181711,100.03309 a 39.408924,30.041884 0 0 0 -7.57008,0.56293 39.408924,30.041884 0 0 0 -7.28741,1.66122 39.408924,30.041884 0 0 0 -6.73292,2.69728 39.408924,30.041884 0 0 0 -5.9278,3.63327 39.408924,30.041884 0 0 0 -4.90151,4.43335 39.408924,30.041884 0 0 0 -3.69332,5.06877 39.408924,30.041884 0 0 0 -2.34714,5.5151 39.408924,30.041884 0 0 0 -0.91364,5.75618 36.54282,27.857017 0 0 0 -6.6977795,-1.50798 36.54282,27.857017 0 0 0 -6.951,-0.50936 36.54282,27.857017 0 0 0 -2.14973997,0.16151 v 71.92985 h -0.0083 V 286.1739 H 677.33444 v -86.73869 h -0.20774 v -65.99088 a 37.412886,28.340646 0 0 0 -2.2009,-0.16427 37.412886,28.340646 0 0 0 -3.57498,0.1304 37.412886,28.340646 0 0 0 -3.54138,0.38763 37.412886,28.340646 0 0 0 -3.47731,0.64289 37.412886,28.340646 0 0 0 -3.38015,0.89148 40.347231,30.563443 0 0 0 -0.28112,-2.94506 40.347231,30.563443 0 0 0 -0.65423,-2.91118 40.347231,30.563443 0 0 0 -1.02267,-2.84895 40.347231,30.563443 0 0 0 -1.38028,-2.76188 40.347231,30.563443 0 0 0 -1.72651,-2.64763 40.347231,30.563443 0 0 0 -2.05466,-2.50898 40.347231,30.563443 0 0 0 -2.36574,-2.34706 40.347231,30.563443 0 0 0 -2.65255,-2.1635 40.347231,30.563443 0 0 0 -2.91662,-1.95944 40.347231,30.563443 0 0 0 -3.15226,-1.73685 40.347231,30.563443 0 0 0 -3.35897,-1.49814 40.347231,30.563443 0 0 0 -3.53415,-1.24602 40.347231,30.563443 0 0 0 -3.67678,-0.98129 40.347231,30.563443 0 0 0 -3.78427,-0.7087 40.347231,30.563443 0 0 0 -3.85713,-0.4278 40.347231,30.563443 0 0 0 -3.8933,-0.14497 40.347231,30.563443 0 0 0 -3.47421,0.11384 40.347231,30.563443 0 0 0 -3.44836,0.33997 40.347231,30.563443 0 0 0 -3.39618,0.56372 40.347231,30.563443 0 0 0 -3.32021,0.78275 40.347231,30.563443 0 0 0 -3.21892,0.99705 40.347231,30.563443 0 0 0 -3.09336,1.20308 40.347231,30.563443 0 0 0 -2.94555,1.40005 40.347231,30.563443 0 0 0 -2.77503,1.58716 49.150264,37.231831 0 0 0 -3.18637,-1.59425 49.150264,37.231831 0 0 0 -3.33881,-1.40241 49.150264,37.231831 0 0 0 -3.47318,-1.20112 49.150264,37.231831 0 0 0 -3.58582,-0.9939 49.150264,37.231831 0 0 0 -3.67678,-0.77959 49.150264,37.231831 0 0 0 -3.74603,-0.56136 49.150264,37.231831 0 0 0 -3.7915,-0.33957 49.150264,37.231831 0 0 0 -3.81527,-0.11542 49.150264,37.231831 0 0 0 -2.8577,0.063 49.150264,37.231831 0 0 0 -2.84841,0.1887 49.150264,37.231831 0 0 0 -2.82825,0.31436 49.150264,37.231831 0 0 0 -2.80035,0.43766 49.150264,37.231831 0 0 0 -2.76107,0.56056 49.150264,37.231831 0 0 0 -2.71456,0.68112 49.150264,37.231831 0 0 0 -2.65669,0.79969 49.150264,37.231831 0 0 0 -2.59157,0.9155 49.150264,37.231831 0 0 0 -2.51612,1.02779 49.150264,37.231831 0 0 0 -2.43345,1.13728 49.150264,37.231831 0 0 0 -2.34197,1.24168 49.150264,37.231831 0 0 0 -2.24276,1.34372 49.150264,37.231831 0 0 0 -2.13579,1.43944 49.150264,37.231831 0 0 0 -2.02158,1.53162 49.150264,37.231831 0 0 0 -1.90066,1.6175 49.150264,37.231831 0 0 0 -1.77302,1.69905 49.150264,37.231831 0 0 0 -1.64021,1.77428 49.150264,37.231831 0 0 0 -1.5012,1.84321 49.150264,37.231831 0 0 0 -1.3565,1.90626 49.150264,37.231831 0 0 0 -1.2082,1.96259 49.150264,37.231831 0 0 0 -1.05523,2.01301 49.150264,37.231831 0 0 0 -0.21032,0.48021 67.385264,48.208714 0 0 0 -4.22455,-1.52375 67.385264,48.208714 0 0 0 -6.68952,-1.87828 67.385264,48.208714 0 0 0 -6.93084,-1.35829 67.385264,48.208714 0 0 0 -7.09414,-0.82254 67.385264,48.208714 0 0 0 -7.17527,-0.27733 67.385264,48.208714 0 0 0 -7.16287,0.273 67.385264,48.208714 0 0 0 -7.08122,0.81703 67.385264,48.208714 0 0 0 -6.92051,1.3504 67.385264,48.208714 0 0 0 -6.68073,1.86845 67.385264,48.208714 0 0 0 -6.36447,2.36636 67.385264,48.208714 0 0 0 -5.97793,2.83712 67.385264,48.208714 0 0 0 -5.52163,3.27598 67.385264,48.208714 0 0 0 -5.00383,3.67658 67.385264,48.208714 0 0 0 -4.42918,4.03667 67.385264,48.208714 0 0 0 -3.10059,3.49618 40.152431,30.460845 0 0 0 -1.05575,-1.02227 40.152431,30.460845 0 0 0 -3.42821,-2.60116 40.152431,30.460845 0 0 0 -3.81734,-2.26867 40.152431,30.460845 0 0 0 -4.1491,-1.90271 40.152431,30.460845 0 0 0 -4.42144,-1.50955 40.152431,30.460845 0 0 0 -4.62866,-1.09436 40.152431,30.460845 0 0 0 -4.76973,-0.663 40.152431,30.460845 0 0 0 -4.84002,-0.22216 40.152431,30.460845 0 0 0 -4.01112,0.15322 40.152431,30.460845 0 0 0 -3.97082,0.45618 40.152431,30.460845 0 0 0 -3.89123,0.75478 59.48508,45.127176 0 0 0 -3.35122,-4.08589 59.48508,45.127176 0 0 0 -3.9057,-3.79203 59.48508,45.127176 0 0 0 -4.41575,-3.45521 59.48508,45.127176 0 0 0 -4.87568,-3.0786 59.48508,45.127176 0 0 0 -5.28081,-2.66694 59.48508,45.127176 0 0 0 -5.62446,-2.22575 59.48508,45.127176 0 0 0 -5.90455,-1.75852 59.48508,45.127176 0 0 0 -6.11901,-1.27123 59.48508,45.127176 0 0 0 -6.26163,-0.77015 59.48508,45.127176 0 0 0 -6.3345,-0.25959 59.48508,45.127176 0 0 0 -6.32313,0.25605 59.48508,45.127176 0 0 0 -6.2513,0.76423 59.48508,45.127176 0 0 0 -6.10918,1.26415 59.48508,45.127176 0 0 0 -5.89732,1.74946 59.48508,45.127176 0 0 0 -5.61826,2.2151 59.48508,45.127176 0 0 0 -5.27668,2.65552 59.48508,45.127176 0 0 0 -4.87412,3.06639 59.48508,45.127176 0 0 0 -4.4173,3.44182 59.48508,45.127176 0 0 0 -3.90984,3.77864 59.48508,45.127176 0 0 0 -3.35897,4.07249 59.48508,45.127176 0 0 0 -2.76831,4.3203 59.48508,45.127176 0 0 0 -2.14767,4.51882 59.48508,45.127176 0 0 0 -1.50223,4.66695 59.48508,45.127176 0 0 0 -0.32711,1.5399 68.164222,48.489316 0 0 0 -2.11977,-2.30136 68.164222,48.489316 0 0 0 -4.47518,-4.07448 68.164222,48.489316 0 0 0 -5.06067,-3.71285 68.164222,48.489316 0 0 0 -5.58726,-3.30787 68.164222,48.489316 0 0 0 -6.05079,-2.86548 68.164222,48.489316 0 0 0 -6.44509,-2.39159 68.164222,48.489316 0 0 0 -6.76651,-1.8897 68.164222,48.489316 0 0 0 -7.01094,-1.36578 68.164222,48.489316 0 0 0 -7.17631,-0.82766 68.164222,48.489316 0 0 0 -7.25795,-0.27891 68.164222,48.489316 0 0 0 -7.24556,0.27497 68.164222,48.489316 0 0 0 -7.16338,0.82136 68.164222,48.489316 0 0 0 -7.00061,1.35829 68.164222,48.489316 0 0 0 -6.75773,1.87946 68.164222,48.489316 0 0 0 -6.43785,2.38056 68.164222,48.489316 0 0 0 -6.04717,2.85327 68.164222,48.489316 0 0 0 -5.58519,3.29489 68.164222,48.489316 0 0 0 -5.06222,3.69825 68.164222,48.489316 0 0 0 -4.48035,4.0603 68.164222,48.489316 0 0 0 -0.97927,1.11405 55.011709,39.323046 0 0 1 1.08004,0.81189 48.007236,36.596475 0 0 0 -2.13062,-1.23064 48.007236,36.596475 0 0 0 -6.64352,-2.95492 48.007236,36.596475 0 0 0 2.12493,-6.08276 48.007236,36.596475 0 0 0 0.72657,-6.27064 48.007236,36.596475 0 0 0 -0.0816,-2.12805 48.007236,36.596475 0 0 0 -0.24288,-2.12056 48.007236,36.596475 0 0 0 -0.40514,-2.10637 48.007236,36.596475 0 0 0 -0.56431,-2.08471 48.007236,36.596475 0 0 0 -0.72295,-2.05634 48.007236,36.596475 0 0 0 -0.8785,-2.0205 48.007236,36.596475 0 0 0 -1.03094,-1.97874 48.007236,36.596475 0 0 0 -1.18029,-1.9291 48.007236,36.596475 0 0 0 -1.32499,-1.87395 48.007236,36.596475 0 0 0 -1.46606,-1.81171 48.007236,36.596475 0 0 0 -1.60197,-1.74395 48.007236,36.596475 0 0 0 -1.73167,-1.66989 48.007236,36.596475 0 0 0 -1.85674,-1.58993 48.007236,36.596475 0 0 0 -1.97455,-1.50562 48.007236,36.596475 0 0 0 -2.08618,-1.41501 48.007236,36.596475 0 0 0 -2.19057,-1.32047 48.007236,36.596475 0 0 0 -2.28719,-1.22081 48.007236,36.596475 0 0 0 -2.37712,-1.11759 48.007236,36.596475 0 0 0 -2.45773,-1.01045 48.007236,36.596475 0 0 0 -2.53111,-0.89975 48.007236,36.596475 0 0 0 -2.59519,-0.7859 48.007236,36.596475 0 0 0 -2.651,-0.66969 48.007236,36.596475 0 0 0 -2.697,-0.55111 48.007236,36.596475 0 0 0 -2.73523,-0.43018 48.007236,36.596475 0 0 0 -2.76262,-0.30884 48.007236,36.596475 0 0 0 -2.78226,-0.18555 48.007236,36.596475 0 0 0 -2.79105,-0.0619 48.007236,36.596475 0 0 0 -7.43003,0.44712 48.007236,36.596475 0 0 0 -7.250209,1.31811 48.007236,36.596475 0 0 0 -6.89467,2.15759 48.007236,36.596475 0 0 0 -6.37325,2.94545 39.408924,30.041884 0 0 0 -5.58777,-2.9364 39.408924,30.041884 0 0 0 -6.16552,-2.16231 39.408924,30.041884 0 0 0 -6.56032,-1.32362 39.408924,30.041884 0 0 0 -6.76135,-0.44594 z" />
    <path
       id="rect1682"
       style="opacity:1;fill:url(#linearGradient3313);fill-opacity:1;stroke-width:1.42528"
       inkscape:label="Background - Trees"
       d="M 0.00465088,0 V 1.6758667 A 37.412886,29.758865 0 0 0 2.2050334,1.848466 37.412886,29.758865 0 0 0 5.780009,1.7115234 37.412886,29.758865 0 0 0 9.3213949,1.3048299 37.412886,29.758865 0 0 0 12.798702,0.62941895 37.412886,29.758865 0 0 0 15.071948,0 Z M 16.206763,0 a 40.347231,32.092893 0 0 0 0.253214,2.7858765 40.347231,32.092893 0 0 0 0.654224,3.0566609 40.347231,32.092893 0 0 0 1.022676,2.9915487 40.347231,32.092893 0 0 0 1.380278,2.9000809 40.347231,32.092893 0 0 0 1.72651,2.780193 40.347231,32.092893 0 0 0 2.054654,2.634464 40.347231,32.092893 0 0 0 2.365748,2.464449 40.347231,32.092893 0 0 0 2.652551,2.272213 40.347231,32.092893 0 0 0 2.916618,2.057239 40.347231,32.092893 0 0 0 3.152262,1.823661 40.347231,32.092893 0 0 0 3.358968,1.573031 40.347231,32.092893 0 0 0 3.534151,1.308447 40.347231,32.092893 0 0 0 3.676779,1.030428 40.347231,32.092893 0 0 0 3.784265,0.74414 40.347231,32.092893 0 0 0 0.37052,0.04341 c 6.252694,30.954015 26.260336,26.609816 31.698323,24.80417 L 73.380017,265.13782 H 114.62711 L 108.3262,93.718311 c 10.76919,2.058257 36.10753,-0.06933 29.15068,-68.975635 a 49.150264,39.094981 0 0 0 0.30696,-0.150895 49.150264,39.094981 0 0 0 2.34197,-1.303797 49.150264,39.094981 0 0 0 2.24276,-1.411283 49.150264,39.094981 0 0 0 2.13579,-1.511536 49.150264,39.094981 0 0 0 2.02158,-1.60817 49.150264,39.094981 0 0 0 1.90066,-1.698605 49.150264,39.094981 0 0 0 1.77302,-1.78387 49.150264,39.094981 0 0 0 1.64021,-1.862936 49.150264,39.094981 0 0 0 1.5012,-1.935799 49.150264,39.094981 0 0 0 1.3565,-2.0014279 49.150264,39.094981 0 0 0 1.2082,-2.0608561 49.150264,39.094981 0 0 0 1.05523,-2.1135661 49.150264,39.094981 0 0 0 0.21032,-0.504362 67.385264,50.621166 0 0 0 4.22455,1.5999024 67.385264,50.621166 0 0 0 6.68952,1.9724894 67.385264,50.621166 0 0 0 6.93084,1.4262695 67.385264,50.621166 0 0 0 7.09414,0.8635128 67.385264,50.621166 0 0 0 7.17527,0.291455 67.385264,50.621166 0 0 0 7.16287,-0.286804 67.385264,50.621166 0 0 0 7.08123,-0.8578285 67.385264,50.621166 0 0 0 6.9205,-1.4180013 67.385264,50.621166 0 0 0 6.68073,-1.9621541 67.385264,50.621166 0 0 0 6.36447,-2.4846029 67.385264,50.621166 0 0 0 5.97793,-2.97914632 A 67.385264,50.621166 0 0 0 231.01536,0 Z M 233.23279,0 c -5.7405,68.922528 22.68951,66.32216 31.58619,63.874654 l -6.00119,201.770116 h 34.66042 L 286.69154,45.91296 c 6.89673,1.950268 26.48595,4.325871 31.40636,-29.434896 a 59.48508,47.385423 0 0 0 5.77225,1.805575 59.48508,47.385423 0 0 0 6.11901,1.334802 59.48508,47.385423 0 0 0 6.26163,0.808736 59.48508,47.385423 0 0 0 6.3345,0.272335 59.48508,47.385423 0 0 0 6.32313,-0.268718 59.48508,47.385423 0 0 0 6.2513,-0.802535 59.48508,47.385423 0 0 0 6.10918,-1.327567 59.48508,47.385423 0 0 0 5.89732,-1.837097 59.48508,47.385423 0 0 0 5.61826,-2.325957 59.48508,47.385423 0 0 0 5.27668,-2.787943 59.48508,47.385423 0 0 0 4.87412,-3.2199587 59.48508,47.385423 0 0 0 4.4173,-3.6142496 59.48508,47.385423 0 0 0 3.90984,-3.96771652 A 59.48508,47.385423 0 0 0 391.69289,0 h -98.18677 a 59.48508,47.385423 0 0 0 0.35708,0.45681966 59.48508,47.385423 0 0 0 3.9057,3.98166914 59.48508,47.385423 0 0 0 4.41576,3.6282023 59.48508,47.385423 0 0 0 4.87567,3.2328779 59.48508,47.385423 0 0 0 4.12636,2.188497 c -3.65624,15.566086 -10.59857,26.139657 -23.34793,21.557857 -0.53091,-0.190794 -0.99114,-0.347206 -1.49862,-0.526583 L 285.27354,0 H 266.7186 l -1.56166,52.497571 c -0.44734,0.158456 -0.84826,0.294233 -1.31361,0.46147 C 243.39854,60.306387 237.88694,28.712945 236.92972,0 Z m 197.71868,0 a 68.164222,50.91581 0 0 0 0.154,0.05994466 68.164222,50.91581 0 0 0 6.76651,1.98385824 68.164222,50.91581 0 0 0 7.01094,1.4345378 68.164222,50.91581 0 0 0 7.17631,0.8686808 68.164222,50.91581 0 0 0 7.25795,0.2930054 68.164222,50.91581 0 0 0 7.24556,-0.2888713 68.164222,50.91581 0 0 0 7.16338,-0.8624797 68.164222,50.91581 0 0 0 7.00061,-1.4262695 68.164222,50.91581 0 0 0 6.75773,-1.97352294 A 68.164222,50.91581 0 0 0 487.71338,0 Z m 90.02862,0 a 48.007236,38.42783 0 0 0 0.0207,0.56585693 48.007236,38.42783 0 0 0 0.24288,2.22622067 48.007236,38.42783 0 0 0 0.40514,2.2122681 48.007236,38.42783 0 0 0 0.56431,2.1890137 48.007236,38.42783 0 0 0 0.72295,2.1590413 48.007236,38.42783 0 0 0 0.8785,2.1218343 48.007236,38.42783 0 0 0 1.03094,2.077393 48.007236,38.42783 0 0 0 1.18029,2.025716 48.007236,38.42783 0 0 0 1.32499,1.967838 48.007236,38.42783 0 0 0 1.46606,1.90221 48.007236,38.42783 0 0 0 1.60197,1.831413 48.007236,38.42783 0 0 0 1.73167,1.753381 48.007236,38.42783 0 0 0 1.85674,1.669665 48.007236,38.42783 0 0 0 1.97455,1.580782 48.007236,38.42783 0 0 0 2.08618,1.485698 48.007236,38.42783 0 0 0 2.19057,1.386479 48.007236,38.42783 0 0 0 2.28719,1.282092 48.007236,38.42783 0 0 0 2.37712,1.173572 48.007236,38.42783 0 0 0 2.45773,1.060917 48.007236,38.42783 0 0 0 0.46664,0.174149 l -9.35292,232.79923 h 46.8204 L 577.31101,73.809965 c 6.32187,1.774833 31.52158,6.037394 30.82706,-39.089604 a 39.408924,31.545233 0 0 0 0.48938,0.180351 39.408924,31.545233 0 0 0 6.56032,1.390096 39.408924,31.545233 0 0 0 6.76135,0.468189 39.408924,31.545233 0 0 0 7.57008,-0.590662 39.408924,31.545233 0 0 0 7.28741,-1.744596 39.408924,31.545233 0 0 0 6.73292,-2.832386 39.408924,31.545233 0 0 0 5.9278,-3.814754 39.408924,31.545233 0 0 0 4.90151,-4.65553 39.408924,31.545233 0 0 0 3.69332,-5.322155 39.408924,31.545233 0 0 0 2.34714,-5.791378 39.408924,31.545233 0 0 0 0.91364,-6.0440757 36.54282,29.251034 0 0 0 6.69778,1.5833659 36.54282,29.251034 0 0 0 6.951,0.534851 36.54282,29.251034 0 0 0 2.14974,-0.1694987 V 0 Z M 81.921098,23.831104 81.214164,43.808179 c -0.848902,0.296173 -1.674025,0.58094 -2.592606,0.911055 C 68.158417,48.479425 61.61095,42.022002 57.575297,30.986739 a 40.347231,32.092893 0 0 0 2.389002,-0.08268 40.347231,32.092893 0 0 0 3.448368,-0.356568 40.347231,32.092893 0 0 0 3.396175,-0.592211 40.347231,32.092893 0 0 0 3.320211,-0.821656 40.347231,32.092893 0 0 0 3.218925,-1.046964 40.347231,32.092893 0 0 0 3.093351,-1.263489 40.347231,32.092893 0 0 0 2.945557,-1.470195 40.347231,32.092893 0 0 0 2.534212,-1.52187 z m 52.364762,2.411222 C 133.63141,55.424747 128.56623,89.244 107.91589,82.548966 L 106.0142,30.813623 a 49.150264,39.094981 0 0 0 0.9462,0.08888 49.150264,39.094981 0 0 0 3.81527,0.121439 49.150264,39.094981 0 0 0 2.8577,-0.06615 49.150264,39.094981 0 0 0 2.84841,-0.198437 49.150264,39.094981 0 0 0 2.82825,-0.330213 49.150264,39.094981 0 0 0 2.80035,-0.459403 49.150264,39.094981 0 0 0 2.76107,-0.588595 49.150264,39.094981 0 0 0 2.71456,-0.715201 49.150264,39.094981 0 0 0 2.65669,-0.839743 49.150264,39.094981 0 0 0 2.59157,-0.961181 49.150264,39.094981 0 0 0 1.45159,-0.622701 z m 462.5883,3.304708 a 39.408924,31.545233 0 0 0 5.58777,3.083532 39.408924,31.545233 0 0 0 0.88522,0.326079 c -1.97545,19.626119 -8.04148,37.388904 -24.17268,32.359265 -0.79583,-0.248135 -1.50725,-0.460546 -2.24638,-0.684713 l -1.1808,-28.303699 a 48.007236,38.42783 0 0 0 0.60874,-0.03824 48.007236,38.42783 0 0 0 7.25021,-1.383895 48.007236,38.42783 0 0 0 6.89467,-2.265495 48.007236,38.42783 0 0 0 6.37325,-3.092834 z" />
    <path
       id="path4150"
       style="display:inline;opacity:1;fill:url(#linearGradient4257);fill-opacity:1;stroke-width:1.48569"
       d="m 0.00465088,0 v 19.092891 56.979985 a 29.735825,29.735825 0 0 0 8.23515622,1.312065 29.735825,29.735825 0 0 0 29.4994919,-26.151376 21.495777,21.495777 0 0 0 3.819405,0.356051 21.495777,21.495777 0 0 0 16.86667,-8.175728 27.58625,27.58625 0 0 0 20.750672,9.609232 27.58625,27.58625 0 0 0 18.964217,-7.564913 15.763572,15.763572 0 0 0 10.396777,10.355957 c -0.14554,17.705484 7.46098,23.21714 13.78418,24.799003 L 120.34873,188.59107 C 65.549543,178.31317 21.244028,191.89298 0.00465088,200.7247 V 285.75 H 677.33798 v -94.33326 c -9.53324,-5.91216 -21.13119,-11.0366 -35.33066,-14.43478 -13.09885,-3.13473 -24.79888,-4.52014 -35.3968,-4.56354 -25.89883,-0.10608 -45.19741,7.82277 -62.28767,17.80253 L 542.29248,64.953141 c 3.05696,0.372635 16.07518,1.379427 17.18345,-20.629231 a 22.570568,22.570568 0 0 0 1.04903,-0.406694 22.570568,22.570568 0 0 0 0.15089,-0.0801 22.570568,22.570568 0 0 0 8.06618,-7.373194 22.570568,22.570568 0 0 0 5.2e-4,-5.17e-4 c 1.60257,0.139928 3.27968,0.260923 4.90771,0.395325 a 18.27141,18.27141 0 0 0 14.25907,6.849194 18.27141,18.27141 0 0 0 8.25997,-1.984891 24.003618,24.003618 0 0 0 23.98406,23.480737 24.003618,24.003618 0 0 0 11.77138,-3.094385 34.034981,34.034981 0 0 0 33.36953,27.456205 34.034981,34.034981 0 0 0 12.04371,-2.292883 V 23.698812 0 Z M 268.22445,25.253239 c 4.6562,-0.03915 9.38911,0.03071 14.21464,0.218591 a 34.393246,34.393246 0 0 0 33.54886,26.834538 34.393246,34.393246 0 0 0 15.06419,-3.480924 17.554886,17.554886 0 0 0 13.84515,16.615006 c -1.95947,23.03838 7.38586,29.043657 14.45597,30.430184 l -1.81229,99.211516 c -2.32561,-0.33282 -4.70338,-0.63891 -7.15977,-0.90382 -73.08515,-7.88172 -78.30552,55.09801 -180.14353,10.00559 -7.93533,-3.51368 -15.74144,-6.43278 -23.40581,-8.88163 l -1.70532,-93.34779 c 7.95728,0.32635 29.22688,-1.95031 23.22184,-42.552958 a 22.212305,22.212305 0 0 0 12.93254,-19.992578 22.212305,22.212305 0 0 0 -0.36121,-3.988904 c 29.61967,-5.137438 56.95671,-9.911677 87.30474,-10.166821 z m 216.9263,14.030668 a 22.570568,22.570568 0 0 0 18.26297,20.371366 c -1.14297,27.263547 11.64499,30.99632 18.42523,31.205848 l -1.86397,114.995569 c -11.37777,7.54229 -22.72054,14.64314 -35.60351,19.13268 -38.54609,13.43269 -54.72863,-10.26254 -98.96915,-23.75411 l -2.1761,-119.128644 c 2.43995,0.310539 18.41464,2.628842 17.58239,-25.759668 a 17.554886,17.554886 0 0 0 8.92142,-8.665104 c 33.29041,3.023411 55.57696,-3.026907 75.42072,-8.397937 z m 56.8203,5.829102 a 22.570568,22.570568 0 0 0 0.002,5.16e-4 22.570568,22.570568 0 0 0 3.78944,1.05575 22.570568,22.570568 0 0 0 0.23771,0.04496 22.570568,22.570568 0 0 0 3.93412,0.360185 22.570568,22.570568 0 0 0 5.26532,-0.654224 c -1.7474,8.59471 -5.24321,15.114302 -12.17342,12.596648 -0.29853,-0.108451 -0.55965,-0.197057 -0.84233,-0.29714 z m -419.15167,8.216036 -0.38551,21.093802 c -5.45823,-1.969926 -8.14713,-9.539761 -9.4511,-17.846972 a 15.763572,15.763572 0 0 0 0.22841,0.02945 15.763572,15.763572 0 0 0 9.6082,-3.276285 z m 259.89628,0.819071 a 17.554886,17.554886 0 0 0 11.01535,3.890719 17.554886,17.554886 0 0 0 3.64267,-0.52865 c -1.31533,11.078966 -4.67691,21.248509 -13.05864,18.20354 -0.43003,-0.156224 -0.81606,-0.28945 -1.21336,-0.428398 z m 139.70982,0.518315 -0.47078,29.056624 c -9.39318,1.389917 -13.06774,-10.879027 -14.46165,-23.555668 a 22.570568,22.570568 0 0 0 0.16537,0.02067 22.570568,22.570568 0 0 0 14.76706,-5.521626 z M 144.2868,55.972294 a 22.212305,22.212305 0 0 0 14.78204,5.648751 22.212305,22.212305 0 0 0 6.08542,-0.896586 c -0.85274,16.489355 -4.69041,37.342755 -20.17241,33.30546 z m 215.69019,5.737634 -0.51211,28.035498 C 352.06086,88.035409 349.34349,76.661398 348.38752,65.894169 a 17.554886,17.554886 0 0 0 0.20257,0.02635 17.554886,17.554886 0 0 0 11.3869,-4.210596 z"
       inkscape:label="Middleground - Trees" />
    <path
       id="path6574"
       style="display:inline;opacity:1;fill:url(#linearGradient6735);fill-opacity:1;stroke-width:1.47592"
       d="m 0.00465088,0 v 60.410266 a 47.648972,47.648972 0 0 0 20.41632512,4.793506 47.648972,47.648972 0 0 0 3.185335,-0.253215 c -5.340499,37.989773 15.48496,40.454173 23.527763,40.032703 L 43.390116,258.1305 c -15.576985,-0.15 -30.196644,-0.75262 -43.38546512,-1.56528 V 285.75 H 677.33798 v -28.44012 c -20.33771,8.62237 -45.09809,12.3778 -70.75382,12.96355 L 602.7229,104.24687 c 5.79096,0.82866 34.06726,2.46343 31.25597,-45.114562 a 56.247284,56.247284 0 0 0 27.73268,7.504451 56.247284,56.247284 0 0 0 15.62643,-2.424658 V 0 Z M 371.11688,22.739181 a 42.991554,42.991554 0 0 0 39.45237,25.98446 42.991554,42.991554 0 0 0 25.00003,-8.047054 56.247284,56.247284 0 0 0 6.91172,7.627441 18.27141,18.27141 0 0 0 -1.81746,7.943185 18.27141,18.27141 0 0 0 18.27124,18.271236 18.27141,18.27141 0 0 0 17.0279,-11.651485 56.247284,56.247284 0 0 0 4.46794,0.187068 56.247284,56.247284 0 0 0 46.41733,-24.485327 36.901081,36.901081 0 0 0 12.87931,2.929537 23.645351,23.645351 0 0 0 17.04547,19.860803 c 1.41204,17.384904 9.88513,20.571514 14.92519,20.898466 L 570.2825,140.1563 c -22.43582,-1.30628 -14.14961,-74.175346 -18.57147,-30.9826 -3.50751,34.26149 11.7295,37.69906 18.40973,37.60339 l -2.9869,122.1636 C 522.3083,265.13009 480.3843,254.40115 460.53055,246.02839 433.78866,234.75077 387.82348,215.69072 327.29992,214.84942 L 324.12595,78.34974 c 5.14757,0.07615 16.64963,-2.438978 15.05541,-26.854692 a 22.928825,22.928825 0 0 0 16.93179,-22.117513 22.928825,22.928825 0 0 0 -0.006,-0.522966 36.901081,36.901081 0 0 0 15.00993,-6.115388 z m -123.88701,6.338631 a 49.440285,49.440285 0 0 0 13.05553,6.099886 22.928825,22.928825 0 0 0 -0.18655,2.798279 22.928825,22.928825 0 0 0 22.92884,22.928833 22.928825,22.928825 0 0 0 11.23497,-2.950725 l -1.60972,65.835255 c -1.1414,-0.0589 -2.4472,-0.094 -3.98167,-0.094 -21.61509,0 -13.71708,-74.58407 -17.87385,-31.001723 -4.15673,43.582343 19.95227,37.291783 19.95227,37.291783 0,0 0.74122,-0.24009 1.76734,-0.62115 l -2.13372,87.26289 c -23.51073,2.57791 -48.73484,8.0755 -75.50805,17.74413 -41.28528,14.90939 -88.44071,21.185 -132.152661,23.10144 L 79.748104,129.57142 c 0.312595,0.13215 0.824756,0.34985 0.824756,0.34985 0,0 33.98995,6.04188 22.00796,-46.364096 -11.981967,-52.40599 15.18362,48.625136 -21.52892,39.963456 -0.515577,-0.12165 -0.965001,-0.22196 -1.452108,-0.33435 L 77.580278,36.35127 a 35.826294,35.826294 0 0 0 12.702067,2.340942 35.826294,35.826294 0 0 0 4.274157,-0.280086 18.27141,18.27141 0 0 0 -0.69143,4.937683 18.27141,18.27141 0 0 0 18.271238,18.271236 18.27141,18.27141 0 0 0 17.56327,-13.272058 44.782867,44.782867 0 0 0 22.56193,6.107121 44.782867,44.782867 0 0 0 38.05297,-21.229712 18.27141,18.27141 0 0 0 17.11989,11.914518 18.27141,18.27141 0 0 0 16.61397,-10.691337 18.27141,18.27141 0 0 0 8.46408,2.093412 18.27141,18.27141 0 0 0 14.71745,-7.465177 z m 354.04712,12.995072 a 18.27141,18.27141 0 0 0 16.72663,10.950236 18.27141,18.27141 0 0 0 5.91902,-0.998389 56.247284,56.247284 0 0 0 5.11287,3.998723 c -2.4035,17.681104 -8.29842,39.338167 -24.04143,39.338167 -0.87721,0 -1.6838,0.0096 -2.47737,0.02067 z m -277.80733,8.064624 a 22.928825,22.928825 0 0 0 9.71465,2.16886 22.928825,22.928825 0 0 0 3.13263,-0.233061 c -1.40439,9.630716 -4.59381,20.551722 -12.31398,20.996651 z M 48.328316,56.137659 47.443099,92.341134 c -0.514128,0.132249 -1.040551,0.271218 -1.594218,0.424263 C 33.48024,96.184357 29.988712,79.534746 29.054557,64.322689 a 47.648972,47.648972 0 0 0 19.273759,-8.18503 z M 572.22915,60.528088 571.8514,75.97314 c -5.00464,-1.064359 -8.07599,-6.862864 -9.98854,-13.797607 a 23.645351,23.645351 0 0 0 1.32654,0.162264 23.645351,23.645351 0 0 0 9.03975,-1.809709 z"
       inkscape:label="Foreground - Trees" />
    <path
       id="path6737"
       style="display:inline;opacity:1;fill:url(#linearGradient12997);fill-opacity:1;stroke-width:1.48569"
       d="m 545.6345,88.849133 a 18.987938,18.987938 0 0 0 -18.98799,18.987987 18.987938,18.987938 0 0 0 0.0222,0.59015 10.031363,10.031363 0 0 0 -7.90391,9.79941 10.031363,10.031363 0 0 0 10.03144,10.03143 10.031363,10.031363 0 0 0 7.8052,-3.7331 18.987938,18.987938 0 0 0 9.03304,2.30011 18.987938,18.987938 0 0 0 11.03757,-3.5512 13.255731,13.255731 0 0 0 9.74153,4.26796 13.255731,13.255731 0 0 0 13.25604,-13.25605 13.255731,13.255731 0 0 0 -13.25604,-13.25553 13.255731,13.255731 0 0 0 -2.93212,0.32918 18.987938,18.987938 0 0 0 -17.84698,-12.510347 z"
       inkscape:label="Foreground - Leaves" />
    <path
       id="path12999"
       style="display:inline;opacity:1;fill:url(#linearGradient13001);fill-opacity:1;stroke-width:1.27558"
       d="m 271.35008,73.649323 a 16.302641,16.302641 0 0 1 16.30269,16.302683 16.302641,16.302641 0 0 1 -0.0191,0.506691 8.6127158,8.6127158 0 0 1 6.78613,8.413566 8.6127158,8.6127158 0 0 1 -8.61278,8.612767 8.6127158,8.6127158 0 0 1 -6.70138,-3.20516 16.302641,16.302641 0 0 1 -7.75558,1.97483 16.302641,16.302641 0 0 1 -9.47662,-3.04898 11.38109,11.38109 0 0 1 -8.36387,3.66437 11.38109,11.38109 0 0 1 -11.38136,-11.381358 11.38109,11.38109 0 0 1 11.38136,-11.380917 11.38109,11.38109 0 0 1 2.51745,0.282627 16.302641,16.302641 0 0 1 15.32304,-10.741119 z"
       inkscape:label="Foreground - Leaves" />
    <path
       id="path13003"
       style="display:inline;opacity:1;fill:url(#linearGradient13005);fill-opacity:1;stroke-width:1.37445"
       d="m 98.26821,67.479991 a 17.566309,17.566309 0 0 0 -17.56636,17.566351 17.566309,17.566309 0 0 0 0.0206,0.545965 9.280314,9.280314 0 0 0 -7.31214,9.065732 9.280314,9.280314 0 0 0 9.28038,9.280371 9.280314,9.280314 0 0 0 7.22083,-3.4536 17.566309,17.566309 0 0 0 8.35673,2.1279 17.566309,17.566309 0 0 0 10.21119,-3.285312 12.263273,12.263273 0 0 0 9.01218,3.948402 12.263273,12.263273 0 0 0 12.26354,-12.263559 12.263273,12.263273 0 0 0 -12.26356,-12.263088 12.263273,12.263273 0 0 0 -2.71259,0.304534 17.566309,17.566309 0 0 0 -16.51078,-11.573696 z"
       inkscape:label="Foreground - Leaves" />
    <circle
       style="opacity:1;fill:#5dc34e;fill-opacity:0.484419;stroke-width:1.48569"
       id="path9462"
       cx="128.97467"
       cy="72.369118"
       r="12.897467"
       inkscape:label="Circle" />
    <circle
       style="opacity:1;fill:#75c05d;fill-opacity:0.481586;stroke-width:0.99046"
       id="circle9464"
       cx="250.06755"
       cy="44.424606"
       r="8.5983114"
       inkscape:label="Circle" />
    <circle
       style="opacity:1;fill:#2d592d;fill-opacity:0.572238;stroke-width:1.6095"
       id="circle9466"
       cx="362.20389"
       cy="54.814228"
       r="13.972256"
       inkscape:label="Circle" />
    <circle
       style="opacity:1;fill:#31b634;fill-opacity:0.359773;stroke-width:0.990462"
       id="circle9468"
       cx="385.491"
       cy="50.156807"
       r="8.5983114"
       inkscape:label="Circle" />
    <circle
       style="opacity:1;fill:#499f38;fill-opacity:0.444759;stroke-width:1.15554"
       id="circle9470"
       cx="638.42462"
       cy="76.668259"
       r="10.031363"
       inkscape:label="Circle" />
  </g>
</svg>
