<?xml version="1.0" encoding="UTF-8" standalone="no"?>
<!-- Created with Inkscape (http://www.inkscape.org/) -->

<svg
   width="50mm"
   height="50mm"
   viewBox="0 0 50 50"
   version="1.1"
   id="svg753"
   inkscape:version="1.2.2 (732a01da63, 2022-12-09)"
   sodipodi:docname="DarkRedFlower2.svg"
   xmlns:inkscape="http://www.inkscape.org/namespaces/inkscape"
   xmlns:sodipodi="http://sodipodi.sourceforge.net/DTD/sodipodi-0.dtd"
   xmlns="http://www.w3.org/2000/svg"
   xmlns:svg="http://www.w3.org/2000/svg">
  <sodipodi:namedview
     id="namedview755"
     pagecolor="#d0c37f"
     bordercolor="#cccccc"
     borderopacity="1"
     inkscape:showpageshadow="0"
     inkscape:pageopacity="1"
     inkscape:pagecheckerboard="0"
     inkscape:deskcolor="#d1d1d1"
     inkscape:document-units="mm"
     showgrid="false"
     inkscape:zoom="7.319248"
     inkscape:cx="91.471145"
     inkscape:cy="83.615147"
     inkscape:window-width="2560"
     inkscape:window-height="1377"
     inkscape:window-x="-8"
     inkscape:window-y="-8"
     inkscape:window-maximized="1"
     inkscape:current-layer="svg753" />
  <defs
     id="defs750">
    <inkscape:path-effect
       effect="bspline"
       id="path-effect1556"
       is_visible="true"
       lpeversion="1"
       weight="33.333333"
       steps="2"
       helper_size="0"
       apply_no_weight="true"
       apply_with_weight="true"
       only_selected="false" />
    <inkscape:path-effect
       effect="bspline"
       id="path-effect1556-8"
       is_visible="true"
       lpeversion="1"
       weight="33.333333"
       steps="2"
       helper_size="0"
       apply_no_weight="true"
       apply_with_weight="true"
       only_selected="false" />
    <inkscape:path-effect
       effect="bspline"
       id="path-effect1556-3"
       is_visible="true"
       lpeversion="1"
       weight="33.333333"
       steps="2"
       helper_size="0"
       apply_no_weight="true"
       apply_with_weight="true"
       only_selected="false" />
    <inkscape:path-effect
       effect="bspline"
       id="path-effect1556-3-2"
       is_visible="true"
       lpeversion="1"
       weight="33.333333"
       steps="2"
       helper_size="0"
       apply_no_weight="true"
       apply_with_weight="true"
       only_selected="false" />
    <inkscape:path-effect
       effect="bspline"
       id="path-effect1556-3-2-4"
       is_visible="true"
       lpeversion="1"
       weight="33.333333"
       steps="2"
       helper_size="0"
       apply_no_weight="true"
       apply_with_weight="true"
       only_selected="false" />
    <inkscape:path-effect
       effect="bspline"
       id="path-effect1556-3-2-4-4"
       is_visible="true"
       lpeversion="1"
       weight="33.333333"
       steps="2"
       helper_size="0"
       apply_no_weight="true"
       apply_with_weight="true"
       only_selected="false" />
    <inkscape:path-effect
       effect="bspline"
       id="path-effect1556-3-2-4-4-8"
       is_visible="true"
       lpeversion="1"
       weight="33.333333"
       steps="2"
       helper_size="0"
       apply_no_weight="true"
       apply_with_weight="true"
       only_selected="false" />
    <inkscape:path-effect
       effect="bspline"
       id="path-effect1556-3-2-4-4-8-4"
       is_visible="true"
       lpeversion="1"
       weight="33.333333"
       steps="2"
       helper_size="0"
       apply_no_weight="true"
       apply_with_weight="true"
       only_selected="false" />
    <inkscape:path-effect
       effect="bspline"
       id="path-effect1556-3-2-4-4-8-4-5"
       is_visible="true"
       lpeversion="1"
       weight="33.333333"
       steps="2"
       helper_size="0"
       apply_no_weight="true"
       apply_with_weight="true"
       only_selected="false" />
    <inkscape:path-effect
       effect="bspline"
       id="path-effect1556-3-2-4-4-8-4-5-9"
       is_visible="true"
       lpeversion="1"
       weight="33.333333"
       steps="2"
       helper_size="0"
       apply_no_weight="true"
       apply_with_weight="true"
       only_selected="false" />
    <inkscape:path-effect
       effect="bspline"
       id="path-effect1556-3-2-4-4-8-4-5-9-6"
       is_visible="true"
       lpeversion="1"
       weight="33.333333"
       steps="2"
       helper_size="0"
       apply_no_weight="true"
       apply_with_weight="true"
       only_selected="false" />
    <inkscape:path-effect
       effect="bspline"
       id="path-effect1556-3-2-4-4-8-4-5-9-6-9"
       is_visible="true"
       lpeversion="1"
       weight="33.333333"
       steps="2"
       helper_size="0"
       apply_no_weight="true"
       apply_with_weight="true"
       only_selected="false" />
    <inkscape:path-effect
       effect="bspline"
       id="path-effect1556-3-2-4-4-8-4-5-9-6-9-5"
       is_visible="true"
       lpeversion="1"
       weight="33.333333"
       steps="2"
       helper_size="0"
       apply_no_weight="true"
       apply_with_weight="true"
       only_selected="false" />
    <inkscape:path-effect
       effect="bspline"
       id="path-effect1556-3-2-4-4-8-4-5-9-6-9-5-8"
       is_visible="true"
       lpeversion="1"
       weight="33.333333"
       steps="2"
       helper_size="0"
       apply_no_weight="true"
       apply_with_weight="true"
       only_selected="false" />
    <inkscape:path-effect
       effect="bspline"
       id="path-effect1556-3-2-4-4-8-4-5-9-6-9-5-8-2"
       is_visible="true"
       lpeversion="1"
       weight="33.333333"
       steps="2"
       helper_size="0"
       apply_no_weight="true"
       apply_with_weight="true"
       only_selected="false" />
    <inkscape:path-effect
       effect="bspline"
       id="path-effect1556-3-2-4-4-8-4-5-9-6-9-5-8-2-1"
       is_visible="true"
       lpeversion="1"
       weight="33.333333"
       steps="2"
       helper_size="0"
       apply_no_weight="true"
       apply_with_weight="true"
       only_selected="false" />
    <inkscape:path-effect
       effect="bspline"
       id="path-effect1556-3-2-4-4-8-4-5-9-6-9-5-8-2-1-1"
       is_visible="true"
       lpeversion="1"
       weight="33.333333"
       steps="2"
       helper_size="0"
       apply_no_weight="true"
       apply_with_weight="true"
       only_selected="false" />
    <inkscape:path-effect
       effect="bspline"
       id="path-effect1556-2"
       is_visible="true"
       lpeversion="1"
       weight="33.333333"
       steps="2"
       helper_size="0"
       apply_no_weight="true"
       apply_with_weight="true"
       only_selected="false" />
  </defs>
  <g
     inkscape:label="Layer 1"
     inkscape:groupmode="layer"
     id="layer1"
     style="display:inline" />
  <g
     inkscape:groupmode="layer"
     id="layer3"
     inkscape:label="Center">
    <ellipse
       style="fill:#eaca26;fill-rule:evenodd;stroke-width:0.264583;fill-opacity:1"
       id="path928"
       cx="24.32826"
       cy="24.870497"
       rx="6.9044547"
       ry="6.651412" />
  </g>
  <g
     inkscape:groupmode="layer"
     id="layer2"
     inkscape:label="Petals">
    <path
       style="fill:#8d1531;fill-opacity:1;stroke-width:0.264583;paint-order:stroke markers fill"
       d="m 24.560359,18.234158 c 0.195949,0.01507 0.587563,0.04519 0.918945,0.09644 0.331383,0.05124 0.602496,0.123539 0.771187,0.165698 0.16869,0.04216 0.234962,0.05421 0.737866,-1.06338 0.502904,-1.117591 1.442759,-3.364807 1.512187,-4.946259 0.06943,-1.581451 -0.731859,-2.497208 -1.602565,-2.5726631 -0.870705,-0.075455 -1.810559,0.6896831 -2.283523,2.2111191 -0.472963,1.521436 -0.478986,3.798776 -0.442693,4.94036 0.03629,1.141583 0.114613,1.147606 0.153633,1.150607 0.03902,0.003 0.03901,0.003 0.234963,0.01808 z"
       id="path1554"
       inkscape:path-effect="#path-effect1556"
       inkscape:original-d="m 24.364411,18.219085 c 0.391878,0.03039 0.783492,0.06051 1.174842,0.09037 0.271387,0.07256 0.542499,0.14486 0.813351,0.216894 0.06654,0.01231 0.132812,0.02436 0.19882,0.03615 0.940157,-2.247042 1.88001,-4.494259 2.81962,-6.741784 -0.801053,-0.915528 -1.602341,-1.831284 -2.403907,-2.7473228 -0.939628,0.7654332 -1.879482,1.5305718 -2.81962,2.2954598 -0.0058,2.277696 -0.01178,4.555036 -0.01807,6.832157 0.07859,0.0063 0.15691,0.01231 0.234969,0.01807 z" />
    <path
       style="fill:#8d1531;fill-opacity:1;stroke-width:0.264583;paint-order:stroke markers fill"
       d="m 22.021442,18.653416 c 0.188808,-0.05454 0.566151,-0.163538 0.894481,-0.231655 0.32833,-0.06812 0.607587,-0.09539 0.780358,-0.115014 0.172771,-0.01962 0.239061,-0.03155 0.318506,-1.254501 0.07945,-1.22295 0.172345,-3.657017 -0.316734,-5.162544 -0.489078,-1.505526 -1.560432,-2.0824784 -2.402379,-1.848074 -0.841948,0.234404 -1.454136,1.280342 -1.36404,2.871048 0.0901,1.590706 0.882384,3.725792 1.316366,4.782292 0.433981,1.056501 0.509441,1.034703 0.547038,1.023843 0.0376,-0.01086 0.0376,-0.01086 0.226404,-0.06539 z"
       id="path1554-2"
       inkscape:path-effect="#path-effect1556-2"
       inkscape:original-d="m 21.832634,18.707955 c 0.377684,-0.108842 0.755026,-0.217844 1.13203,-0.326998 0.279607,-0.02713 0.558865,-0.0544 0.837786,-0.08184 0.06664,-0.01178 0.132928,-0.02372 0.198883,-0.0358 0.09324,-2.434008 0.186144,-4.868075 0.278707,-7.302344 -1.071053,-0.57682 -2.142407,-1.1537708 -3.21412,-1.7308891 -0.611873,1.0461361 -1.22406,2.0920751 -1.836602,3.1378791 0.792622,2.135341 1.584951,4.270412 2.376913,6.405387 0.07582,-0.02164 0.151276,-0.04345 0.226405,-0.0654 z" />
    <path
       style="fill:#8d1531;fill-opacity:1;stroke-width:0.264583;paint-order:stroke markers fill"
       d="m 26.957811,18.734355 c 0.17771,0.08392 0.532871,0.251635 0.824231,0.417618 0.291359,0.165982 0.518902,0.330156 0.661489,0.429668 0.142587,0.09951 0.200216,0.134393 1.068405,-0.730574 0.868189,-0.864967 2.547236,-2.629651 3.175735,-4.08251 0.628499,-1.452858 0.206206,-2.59406 -0.58043,-2.97488 -0.786637,-0.38082 -1.93747,-8.91e-4 -2.921616,1.252073 -0.984147,1.252963 -1.80142,3.378611 -2.174372,4.458165 -0.372952,1.079554 -0.301919,1.113097 -0.266531,1.129807 0.03539,0.01671 0.03538,0.01671 0.213089,0.100633 z"
       id="path1554-9"
       inkscape:path-effect="#path-effect1556-3"
       inkscape:original-d="m 26.780102,18.650436 c 0.355314,0.16806 0.710477,0.335773 1.065486,0.50315 0.227706,0.164518 0.455247,0.328694 0.68264,0.49253 0.05778,0.03522 0.115409,0.0701 0.17288,0.104636 1.679268,-1.764413 3.358313,-3.529099 5.037242,-5.294158 -0.422156,-1.140904 -0.84445,-2.282105 -1.266903,-3.423669 -1.150726,0.380285 -2.301559,0.760215 -3.452568,1.139809 -0.817191,2.12606 -1.634424,4.251723 -2.451869,6.377071 0.07118,0.0339 0.142219,0.06743 0.213099,0.100627 z" />
    <path
       style="fill:#8d1531;fill-opacity:1;stroke-width:0.264583;paint-order:stroke markers fill"
       d="m 29.077211,20.028658 c 0.137086,0.14082 0.411061,0.422256 0.625878,0.679733 0.214818,0.257476 0.370489,0.490918 0.469218,0.634051 0.09873,0.143134 0.1405,0.19598 1.256552,-0.310326 1.116053,-0.506306 3.306622,-1.571536 4.403959,-2.712442 1.097336,-1.140905 1.101269,-2.357726 0.497724,-2.98983 -0.603545,-0.632103 -1.814558,-0.679091 -3.175059,0.150066 -1.360501,0.829156 -2.87019,2.534193 -3.597466,3.414875 -0.727275,0.880682 -0.672479,0.936969 -0.64518,0.96501 0.0273,0.02804 0.02729,0.02804 0.164374,0.168863 z"
       id="path1554-9-7"
       inkscape:path-effect="#path-effect1556-3-2"
       inkscape:original-d="m 28.940124,19.887838 c 0.273998,0.281811 0.547975,0.563245 0.821926,0.84431 0.155704,0.233821 0.311373,0.467264 0.467023,0.700337 0.0418,0.05322 0.08357,0.106066 0.125309,0.158536 2.190682,-1.064899 4.381249,-2.130133 6.57184,-3.195755 0.004,-1.216497 0.0079,-2.433318 0.0118,-3.650537 -1.211039,-0.04662 -2.422053,-0.0936 -3.633115,-0.140966 -1.509756,1.705453 -3.019414,3.410518 -4.529159,5.115214 0.05481,0.05667 0.109613,0.11295 0.164387,0.168859 z" />
    <path
       style="fill:#8d1531;fill-opacity:1;stroke-width:0.264583;paint-order:stroke markers fill"
       d="m 30.517724,22.04159 c 0.08209,0.178564 0.24614,0.535432 0.362458,0.849933 0.116318,0.3145 0.184937,0.586566 0.230103,0.754481 0.04517,0.167914 0.06686,0.231685 1.287979,0.127861 1.221123,-0.103825 3.641826,-0.374956 5.057581,-1.083087 1.415756,-0.70813 1.826485,-1.853543 1.469143,-2.651119 -0.357342,-0.797576 -1.482881,-1.246937 -3.042363,-0.920626 -1.559482,0.326312 -3.552539,1.428147 -4.532505,2.014827 -0.979967,0.586679 -0.947152,0.658055 -0.930805,0.693612 0.01635,0.03556 0.01632,0.03555 0.09841,0.214118 z"
       id="path1554-9-7-6"
       inkscape:path-effect="#path-effect1556-3-2-4"
       inkscape:original-d="m 30.435638,21.863027 c 0.16395,0.357229 0.328007,0.714096 0.492162,1.070606 0.06852,0.272436 0.137138,0.544502 0.20586,0.816214 0.02159,0.06414 0.04328,0.12791 0.06507,0.19132 2.420696,-0.270782 4.841398,-0.541918 7.262251,-0.813411 0.410684,-1.145085 0.821381,-2.290509 1.232212,-3.436308 -1.125684,-0.449023 -2.251225,-0.898377 -3.376683,-1.348111 -1.993258,1.102205 -3.986294,2.204078 -5.979288,3.305573 0.03269,0.07174 0.06552,0.143109 0.09844,0.214119 z" />
    <path
       style="fill:#8d1531;fill-opacity:1;stroke-width:0.264583;paint-order:stroke markers fill"
       d="m 31.163043,24.332769 c 0.0118,0.196172 0.03538,0.588235 0.02982,0.92351 -0.0056,0.335276 -0.04019,0.613716 -0.05895,0.786587 -0.01876,0.172871 -0.02165,0.240161 1.154091,0.585902 1.175746,0.345741 3.530168,0.970247 5.106307,0.823287 1.576138,-0.146961 2.374024,-1.065683 2.329995,-1.938541 -0.04403,-0.872859 -0.930228,-1.699548 -2.501962,-1.960538 -1.571735,-0.26099 -3.828607,0.04371 -4.954565,0.235401 -1.125959,0.191686 -1.121239,0.270101 -1.118887,0.309165 0.0024,0.03906 0.0023,0.03905 0.01415,0.235227 z"
       id="path1554-9-7-6-3"
       inkscape:path-effect="#path-effect1556-3-2-4-4"
       inkscape:original-d="m 31.151244,24.136596 c 0.02335,0.39236 0.04694,0.784422 0.07074,1.176187 -0.03486,0.278749 -0.0695,0.557189 -0.103907,0.835336 -0.0031,0.06761 -0.006,0.1349 -0.0087,0.201895 2.354289,0.62483 4.708712,1.249332 7.063406,1.873556 0.797724,-0.91843 1.595583,-1.837175 2.393703,-2.75622 -0.886456,-0.826426 -1.772659,-1.653109 -2.658648,-2.480117 -2.257194,0.304978 -4.51406,0.609724 -6.77075,0.914134 0.0045,0.07871 0.0092,0.157126 0.01416,0.235239 z" />
    <path
       style="fill:#8d1531;fill-opacity:1;stroke-width:0.264583;paint-order:stroke markers fill"
       d="m 30.934268,26.720279 c -0.06221,0.18642 -0.18655,0.558989 -0.316744,0.868005 -0.130194,0.309015 -0.266172,0.554451 -0.348044,0.70785 -0.08187,0.153399 -0.109666,0.214763 0.852313,0.974045 0.961979,0.759282 2.913636,2.216793 4.430872,2.668242 1.517236,0.451449 2.600188,-0.103428 2.88486,-0.929735 0.284673,-0.826307 -0.229284,-1.923853 -1.590293,-2.752178 -1.361008,-0.828325 -3.568694,-1.387283 -4.684909,-1.629338 -1.116214,-0.242056 -1.141072,-0.167547 -1.153457,-0.130424 -0.01239,0.03712 -0.01238,0.03711 -0.0746,0.223533 z"
       id="path1554-9-7-6-3-9"
       inkscape:path-effect="#path-effect1556-3-2-4-4-8"
       inkscape:original-d="m 30.996482,26.533858 c -0.124661,0.372763 -0.248988,0.745335 -0.373011,1.117712 -0.136302,0.24564 -0.272285,0.491073 -0.407942,0.736321 -0.02808,0.06157 -0.05588,0.122931 -0.08338,0.184085 1.951415,1.457764 3.903076,2.91527 5.855091,4.372622 1.082693,-0.554666 2.165628,-1.109575 3.248919,-1.664663 -0.514296,-1.097399 -1.02826,-2.194942 -1.541903,-3.292707 -2.208088,-0.558825 -4.415784,-1.117743 -6.623195,-1.676907 -0.02517,0.07472 -0.05005,0.149222 -0.07458,0.223548 z" />
    <path
       style="fill:#8d1531;fill-opacity:1;stroke-width:0.264583;paint-order:stroke markers fill"
       d="m 29.796946,28.86646 c -0.126831,0.150125 -0.380306,0.450152 -0.615686,0.688977 -0.235381,0.238825 -0.452587,0.416449 -0.585449,0.528619 -0.132862,0.112171 -0.181405,0.158877 0.43097,1.220437 0.612375,1.06156 1.885465,3.138227 3.127619,4.119483 1.242154,0.981256 2.453599,0.866907 3.024051,0.204785 0.570453,-0.662121 0.499518,-1.871968 -0.457941,-3.145442 -0.95746,-1.273474 -2.801152,-2.610302 -3.74835,-3.248536 -0.947199,-0.638233 -0.997882,-0.578229 -1.023135,-0.548333 -0.02525,0.0299 -0.02525,0.02989 -0.152079,0.18001 z"
       id="path1554-9-7-6-3-9-4"
       inkscape:path-effect="#path-effect1556-3-2-4-4-8-4"
       inkscape:original-d="m 29.923777,28.716336 c -0.25385,0.30009 -0.507317,0.600124 -0.760431,0.90009 -0.217583,0.177694 -0.434793,0.355313 -0.651632,0.532881 -0.04888,0.0468 -0.09743,0.0935 -0.145626,0.140116 1.272771,2.076812 2.545866,4.153476 3.819348,6.230128 1.211125,-0.114249 2.422566,-0.228635 3.634403,-0.343055 -0.0713,-1.209835 -0.142245,-2.419681 -0.212808,-3.629614 -1.844114,-1.336854 -3.68783,-2.673649 -5.531191,-4.010567 -0.05105,0.06009 -0.101755,0.120076 -0.152068,0.180032 z" />
    <path
       style="fill:#8d1531;fill-opacity:1;stroke-width:0.264583;paint-order:stroke markers fill"
       d="m 28.014712,30.437905 c -0.171495,0.09598 -0.514232,0.287809 -0.818523,0.428694 -0.30429,0.140884 -0.570061,0.230856 -0.733862,0.289186 -0.163801,0.05833 -0.225664,0.085 -0.02536,1.294049 0.200299,1.209047 0.662482,3.600633 1.48062,4.955795 0.818137,1.355161 1.992508,1.673793 2.759245,1.254347 0.766738,-0.419447 1.125455,-1.577065 0.67654,-3.105771 -0.448916,-1.528706 -1.705285,-3.428137 -2.367813,-4.358505 -0.662528,-0.930368 -0.731056,-0.892006 -0.765206,-0.872888 -0.03415,0.01912 -0.03414,0.01911 -0.205637,0.115093 z"
       id="path1554-9-7-6-3-9-4-2"
       inkscape:path-effect="#path-effect1556-3-2-4-4-8-4-5"
       inkscape:original-d="m 28.186208,30.341921 c -0.343112,0.191752 -0.685843,0.383588 -1.028221,0.575482 -0.266146,0.08991 -0.531919,0.179874 -0.797326,0.269922 -0.0622,0.02664 -0.124072,0.05329 -0.185574,0.08001 0.461834,2.391612 0.924023,4.783197 1.386578,7.174908 1.174037,0.318614 2.348417,0.637212 3.52318,0.955916 0.358372,-1.157738 0.717079,-2.315359 1.076175,-3.472928 -1.256758,-1.899607 -2.51316,-3.799016 -3.769188,-5.698416 -0.06891,0.03833 -0.137461,0.07665 -0.205633,0.115114 z" />
    <path
       style="fill:#8d1531;fill-opacity:1;stroke-width:0.264583;paint-order:stroke markers fill"
       d="m 25.591464,31.402098 c -0.195154,0.02321 -0.585172,0.06961 -0.920201,0.0836 -0.33503,0.014 -0.615015,-0.0044 -0.788678,-0.013 -0.173663,-0.0086 -0.241022,-0.0076 -0.517647,1.186292 -0.276625,1.193903 -0.762835,3.580721 -0.524255,5.145614 0.238581,1.564893 1.202249,2.307873 2.071058,2.213041 0.868809,-0.09483 1.642437,-1.027708 1.811369,-2.611984 0.168933,-1.584277 -0.266801,-3.819546 -0.523795,-4.932416 -0.256994,-1.112871 -0.334983,-1.103586 -0.373846,-1.098959 -0.03886,0.0046 -0.03885,0.0046 -0.234005,0.02781 z"
       id="path1554-9-7-6-3-9-4-2-3"
       inkscape:path-effect="#path-effect1556-3-2-4-4-8-4-5-9"
       inkscape:original-d="m 25.786618,31.378885 c -0.390337,0.04618 -0.780353,0.09259 -1.170064,0.139177 -0.280309,-0.01855 -0.560294,-0.0369 -0.839975,-0.05504 -0.06766,8.66e-4 -0.135019,0.0019 -0.202064,0.0031 -0.486542,2.386708 -0.972745,4.773527 -1.45866,7.160601 0.963366,0.742835 1.927057,1.485786 2.891059,2.228982 0.773354,-0.933119 1.546974,-1.866002 2.320933,-2.798688 -0.436028,-2.235583 -0.8718,-4.470845 -1.307232,-6.705958 -0.07832,0.0091 -0.156315,0.01834 -0.234009,0.02786 z" />
    <path
       style="fill:#8d1531;fill-opacity:1;stroke-width:0.264583;paint-order:stroke markers fill"
       d="m 21.44706,30.807911 c 0.180674,0.07734 0.54175,0.231899 0.859216,0.339864 0.317466,0.107964 0.591249,0.169369 0.760295,0.210082 0.169046,0.04071 0.233377,0.06071 0.161866,1.284157 -0.07151,1.223442 -0.278568,3.650463 -0.949031,5.08444 -0.670463,1.433976 -1.804621,1.874838 -2.611363,1.538702 -0.806742,-0.336136 -1.285696,-1.449404 -1.000716,-3.016968 0.284979,-1.567563 1.33375,-3.589041 1.894328,-4.584169 0.560578,-0.995129 0.632783,-0.964212 0.668758,-0.948808 0.03598,0.0154 0.03597,0.01536 0.216647,0.0927 z"
       id="path1554-9-7-6-3-9-4-2-3-8"
       inkscape:path-effect="#path-effect1556-3-2-4-4-8-4-5-9-6"
       inkscape:original-d="m 21.266386,30.730572 c 0.361446,0.154448 0.722514,0.309028 1.083243,0.463689 0.274153,0.0613 0.547936,0.122703 0.821371,0.184218 0.06467,0.01992 0.128998,0.03993 0.192978,0.06 -0.206706,2.427007 -0.413768,4.854027 -0.621181,7.281208 -1.133828,0.440809 -2.268,0.881635 -3.40254,1.32261 -0.478621,-1.113421 -0.957564,-2.226694 -1.436888,-3.339873 1.04914,-2.021694 2.097946,-4.043154 3.146382,-6.064569 0.07257,0.03083 0.144791,0.06171 0.216637,0.09276 z" />
    <path
       style="fill:#8d1531;fill-opacity:1;stroke-width:0.264583;paint-order:stroke markers fill"
       d="m 19.400566,29.49179 c 0.144249,0.133479 0.432528,0.400237 0.695361,0.608467 0.262833,0.208231 0.500138,0.357941 0.645719,0.453015 0.145581,0.09507 0.199477,0.135506 -0.278411,1.264022 -0.477889,1.128516 -1.487322,3.345348 -2.600082,4.471215 -1.112759,1.125866 -2.329092,1.160604 -2.976272,0.573256 -0.647181,-0.587348 -0.724811,-1.796786 0.06964,-3.177843 0.79445,-1.381056 2.460719,-2.933422 3.322712,-3.682753 0.861993,-0.749331 0.919633,-0.695982 0.948353,-0.6694 0.02872,0.02658 0.02873,0.02654 0.172981,0.160021 z"
       id="path1554-9-7-6-3-9-4-2-3-8-4"
       inkscape:path-effect="#path-effect1556-3-2-4-4-8-4-5-9-6-9"
       inkscape:original-d="m 19.256318,29.35831 c 0.288666,0.266776 0.576931,0.533549 0.86485,0.800285 0.23769,0.149738 0.474995,0.299448 0.711936,0.449147 0.05423,0.04046 0.108121,0.0809 0.161657,0.121275 -1.009098,2.216937 -2.018537,4.433767 -3.02836,6.65063 -1.216005,0.0348 -2.432339,0.0695 -3.64907,0.104215 -0.07727,-1.209468 -0.154886,-2.418907 -0.232895,-3.628383 1.66669,-1.552446 3.332985,-3.104783 4.998918,-4.657202 0.05802,0.0534 0.11569,0.106717 0.172951,0.160073 z" />
    <path
       style="fill:#8d1531;fill-opacity:1;stroke-width:0.264583;paint-order:stroke markers fill"
       d="m 17.987525,27.48619 c 0.08385,0.177744 0.251434,0.532965 0.417306,0.824388 0.165873,0.291423 0.329958,0.519027 0.429412,0.661651 0.09945,0.142624 0.134314,0.200278 -0.730984,1.06814 -0.865298,0.867863 -2.630622,2.546236 -4.083719,3.174181 -1.453098,0.627945 -2.59414,0.205219 -2.974662,-0.581561 -0.380521,-0.786779 -1.53e-4,-1.93747 1.253188,-2.921139 1.25334,-0.98367 3.379294,-1.80013 4.458993,-2.172662 1.079698,-0.372532 1.113201,-0.301498 1.129894,-0.266104 0.01669,0.03539 0.01672,0.03536 0.100572,0.213106 z"
       id="path1554-9-7-6-3-9-4-2-3-8-4-2"
       inkscape:path-effect="#path-effect1556-3-2-4-4-8-4-5-9-6-9-5"
       inkscape:original-d="m 17.903672,27.308446 c 0.167933,0.355381 0.335494,0.710611 0.502748,1.065676 0.164432,0.227772 0.328518,0.455375 0.492269,0.68283 0.03516,0.05781 0.07001,0.115469 0.104564,0.172937 -1.765052,1.678596 -3.53038,3.356964 -5.296076,5.035219 -1.14076,-0.422545 -2.281789,-0.845307 -3.42319,-1.268203 0.380713,-1.150582 0.761094,-2.301268 1.141125,-3.452134 2.126376,-0.816378 4.252344,-1.632802 6.378008,-2.449436 0.03383,0.07123 0.06738,0.142242 0.100526,0.213143 z" />
    <path
       style="fill:#8d1531;fill-opacity:1;stroke-width:0.264583;paint-order:stroke markers fill"
       d="m 17.481025,25.080332 c 0.0076,0.196384 0.02283,0.588855 0.06143,0.921947 0.03861,0.333093 0.100542,0.606756 0.136253,0.776923 0.03571,0.170167 0.04523,0.236867 -1.090674,0.696919 -1.135905,0.460052 -3.41723,1.313787 -5.000175,1.323038 -1.582946,0.0093 -2.4675767,-0.826273 -2.5098746,-1.699217 -0.042298,-0.872944 0.7580211,-1.78303 2.2963416,-2.197806 1.53832,-0.414777 3.814236,-0.33421 4.953613,-0.254531 1.139377,0.07968 1.14241,0.158155 1.143921,0.197259 0.0015,0.0391 0.0016,0.03909 0.0092,0.235468 z"
       id="path1554-9-7-6-3-9-4-2-3-8-4-2-3"
       inkscape:path-effect="#path-effect1556-3-2-4-4-8-4-5-9-6-9-5-8"
       inkscape:original-d="m 17.473413,24.883949 c 0.01548,0.392757 0.03067,0.785229 0.04564,1.177429 0.06219,0.273953 0.124125,0.547616 0.185811,0.821011 0.0097,0.06696 0.01924,0.133657 0.02855,0.200064 -2.281161,0.854047 -4.562488,1.707775 -6.844108,2.561256 -0.884439,-0.835247 -1.7690444,-1.670799 -2.6539405,-2.50662 0.8005943,-0.909852 1.6009239,-1.819929 2.4010015,-2.730309 2.276273,0.08081 4.552188,0.161412 6.827906,0.241705 0.0033,0.07879 0.0063,0.157266 0.0091,0.235484 z" />
    <path
       style="fill:#8d1531;fill-opacity:1;stroke-width:0.264583;paint-order:stroke markers fill"
       d="m 17.876963,22.678738 c -0.06335,0.186041 -0.189956,0.557842 -0.273424,0.88261 -0.08347,0.324768 -0.123839,0.602433 -0.151555,0.774083 -0.02772,0.17165 -0.04276,0.237325 -1.268094,0.259223 -1.225335,0.0219 -3.661077,3.27e-4 -5.141959,-0.558949 -1.480883,-0.559277 -2.0068603,-1.656555 -1.7331574,-2.48656 0.2737028,-0.830004 1.3472524,-1.392373 2.9319704,-1.227635 1.584718,0.164738 3.680213,1.056469 4.715151,1.539618 1.034938,0.483148 1.009614,0.557486 0.996996,0.594528 -0.01262,0.03704 -0.01258,0.03704 -0.07593,0.223082 z"
       id="path1554-9-7-6-3-9-4-2-3-8-4-2-3-9"
       inkscape:path-effect="#path-effect1556-3-2-4-4-8-4-5-9-6-9-5-8-2"
       inkscape:original-d="m 17.940314,22.492698 c -0.126456,0.372164 -0.253087,0.743957 -0.379823,1.115418 -0.0402,0.278032 -0.08061,0.555691 -0.121117,0.833016 -0.01497,0.06598 -0.02998,0.131663 -0.04512,0.196988 C 14.958552,24.6169 12.52281,24.59532 10.086883,24.57341 9.5609858,23.476458 9.0350406,22.379164 8.5089219,21.281513 9.582644,20.719461 10.6562,20.157104 11.72963,19.594374 c 2.095741,0.892087 4.191223,1.78385 6.286632,2.675254 -0.02519,0.07473 -0.05054,0.149058 -0.07599,0.223071 z" />
    <path
       style="fill:#8d1531;fill-opacity:1;stroke-width:0.264583;paint-order:stroke markers fill"
       d="m 19.195444,20.520997 c -0.125696,0.15108 -0.376898,0.453011 -0.570994,0.726448 -0.194096,0.273436 -0.331101,0.518299 -0.418374,0.668688 -0.08727,0.150388 -0.124803,0.206331 -1.276927,-0.211444 -1.152125,-0.417774 -3.419055,-1.309027 -4.601976,-2.360932 -1.182921,-1.051904 -1.281683,-2.264718 -0.729242,-2.941939 0.55244,-0.677221 1.756111,-0.818454 3.1771,-0.09786 1.42099,0.720596 3.058976,2.302774 3.852672,3.1241 0.793696,0.821326 0.743462,0.881689 0.71843,0.911769 -0.02503,0.03008 -0.02499,0.03009 -0.150689,0.181168 z"
       id="path1554-9-7-6-3-9-4-2-3-8-4-2-3-9-5"
       inkscape:path-effect="#path-effect1556-3-2-4-4-8-4-5-9-6-9-5-8-2-1"
       inkscape:original-d="m 19.32114,20.369918 c -0.251193,0.302324 -0.502415,0.604239 -0.753617,0.905806 -0.136975,0.245266 -0.274014,0.49011 -0.411023,0.734605 -0.03758,0.05627 -0.07508,0.112233 -0.112586,0.167823 -2.267018,-0.890912 -4.533944,-1.782175 -6.800926,-2.673812 -0.09881,-1.212481 -0.197528,-2.425299 -0.296292,-3.63851 1.203717,-0.140879 2.407389,-0.282096 3.611076,-0.423706 1.638089,1.582598 3.27605,3.164802 4.914072,4.746644 -0.05025,0.06078 -0.100506,0.121125 -0.150743,0.181141 z" />
    <path
       style="fill:#8d1531;fill-opacity:1;stroke-width:0.264583;paint-order:stroke markers fill"
       d="m 21.259373,18.983431 c -0.170619,0.09754 -0.511602,0.292462 -0.789118,0.48068 -0.277515,0.188217 -0.49155,0.369649 -0.625936,0.479986 -0.134387,0.110336 -0.189118,0.149605 -1.122178,-0.644955 -0.933061,-0.79456 -2.744727,-2.4228 -3.484711,-3.822167 -0.739985,-1.399366 -0.408058,-2.570049 0.346451,-3.011108 0.75451,-0.44106 1.931489,-0.152118 3.010435,1.020207 1.078946,1.172325 2.059641,3.22769 2.515707,4.274845 0.456066,1.047155 0.387885,1.086121 0.353911,1.105537 -0.03397,0.01942 -0.03394,0.01944 -0.204561,0.116975 z"
       id="path1554-9-7-6-3-9-4-2-3-8-4-2-3-9-5-5"
       inkscape:path-effect="#path-effect1556-3-2-4-4-8-4-5-9-6-9-5-8-2-1-1"
       inkscape:original-d="m 21.429993,18.885895 c -0.341111,0.195296 -0.682107,0.3902 -1.022961,0.584784 -0.214148,0.181819 -0.428208,0.363221 -0.642119,0.544307 -0.0549,0.03956 -0.109609,0.07886 -0.164198,0.117808 -1.811868,-1.627952 -3.623527,-3.2562 -5.435108,-4.884819 0.331765,-1.170387 0.663735,-2.341057 0.9958,-3.512111 1.176899,0.289289 2.353874,0.578246 3.531002,0.866841 0.980644,2.055794 1.961307,4.111174 2.942154,6.166236 -0.06835,0.03935 -0.13654,0.0783 -0.204603,0.116931 z" />
  </g>
</svg>
