<?xml version="1.0" encoding="UTF-8" standalone="no"?>
<!-- Created with Inkscape (http://www.inkscape.org/) -->

<svg
   width="50mm"
   height="50mm"
   viewBox="0 0 50 50"
   version="1.1"
   id="svg15299"
   sodipodi:docname="FishTest1.svg"
   inkscape:version="1.2.2 (732a01da63, 2022-12-09)"
   xmlns:inkscape="http://www.inkscape.org/namespaces/inkscape"
   xmlns:sodipodi="http://sodipodi.sourceforge.net/DTD/sodipodi-0.dtd"
   xmlns="http://www.w3.org/2000/svg"
   xmlns:svg="http://www.w3.org/2000/svg">
  <sodipodi:namedview
     id="namedview15301"
     pagecolor="#1accc4"
     bordercolor="#cccccc"
     borderopacity="1"
     inkscape:showpageshadow="0"
     inkscape:pageopacity="1"
     inkscape:pagecheckerboard="0"
     inkscape:deskcolor="#d1d1d1"
     inkscape:document-units="mm"
     showgrid="false"
     inkscape:zoom="5.1754899"
     inkscape:cx="82.311048"
     inkscape:cy="94.677027"
     inkscape:window-width="2560"
     inkscape:window-height="1377"
     inkscape:window-x="-8"
     inkscape:window-y="-8"
     inkscape:window-maximized="1"
     inkscape:current-layer="layer1" />
  <defs
     id="defs15296">
    <inkscape:path-effect
       effect="bspline"
       id="path-effect23261"
       is_visible="true"
       lpeversion="1"
       weight="33.333333"
       steps="2"
       helper_size="0"
       apply_no_weight="true"
       apply_with_weight="true"
       only_selected="false" />
  </defs>
  <g
     inkscape:label="Layer 1"
     inkscape:groupmode="layer"
     id="layer1">
    <path
       style="fill:#4e4e4e;fill-opacity:0.661972;stroke-width:0.264583;paint-order:stroke markers fill"
       d="M 18.242209,16.350787 C 15.353823,17.637527 14.85965,15.439309 13.828771,13.709597 12.797893,11.979884 11.230208,10.71892 9.3812537,9.6282358 7.532299,8.5375513 5.4022923,7.6173876 4.6779106,9.1341293 3.953529,10.650871 4.6351336,14.604178 6.5864555,16.65749 c 1.9513219,2.053312 5.1719665,2.206676 6.8163985,2.283353 1.644432,0.07668 1.712592,0.07668 0.161853,0.02556 -1.55074,-0.05112 -4.7201999,-0.15336 -6.5352334,1.346366 -1.8150336,1.499726 -2.2750931,4.600867 -2.7351946,7.702291 0.9542842,0.06816 1.9088313,0.136345 3.3402064,-0.255638 1.431375,-0.391983 3.3398666,-1.243988 4.6945506,-2.402712 1.354684,-1.158724 2.155565,-2.624167 3.271932,-2.751902 1.116367,-0.127735 2.54773,1.082107 5.180601,2.666893 2.632871,1.584786 6.466972,3.544438 10.906037,3.152366 4.439065,-0.392072 9.483038,-3.135585 12.218022,-4.831093 2.734984,-1.695508 3.160996,-2.343045 0.741308,-5.180288 -2.419688,-2.837243 -7.685084,-7.864076 -12.959443,-7.99202 -5.274359,-0.127943 -10.556898,4.643383 -13.445284,5.930123 z"
       id="path23259"
       inkscape:path-effect="#path-effect23261"
       inkscape:original-d="M 15.847936,19.835481 C 15.354018,17.637484 14.859845,15.439266 14.365387,13.240695 12.797868,11.979916 11.230183,10.718952 9.6621287,9.4576385 7.5322443,8.5376779 5.4022375,7.6175143 3.2718319,6.6970279 c 0.6819097,3.9538061 1.3635143,7.9071131 2.044895,11.8603911 3.2210385,0.153635 6.4416831,0.306999 9.6621291,0.460101 0.06843,2.65e-4 0.13659,2.65e-4 0.204489,0 -3.169386,-0.101982 -6.3388461,-0.204223 -9.5087615,-0.306734 -0.4598462,3.101751 -1.3803045,9.304272 -1.3803045,9.304272 0,0 1.9088139,0.136589 2.8628526,0.204489 1.9088712,-0.851791 3.8173624,-1.703796 5.7257054,-2.556117 0.801198,-1.465274 1.602079,-2.930716 2.402752,-4.396525 1.431726,1.21019 2.863089,2.420032 4.294279,3.629688 3.834519,1.959995 7.66862,3.919646 11.502534,5.879073 5.04444,-2.743359 10.088414,-5.48687 15.132222,-8.230702 0.426294,-0.647299 0.852305,-1.294836 1.278062,-1.94265 C 42.227242,15.575447 36.961846,10.548614 31.695871,5.5212165 26.413385,10.292998 21.130845,15.064324 15.847936,19.835481 Z"
       sodipodi:nodetypes="cccccccccccccccccc" />
  </g>
</svg>
