<?xml version="1.0" encoding="UTF-8"?>
<svg xmlns="http://www.w3.org/2000/svg" viewBox="0 0 500 500">
  <defs>
    <style>
      .cls-1 {
        fill: #fff;
        opacity: .12;
      }

      .cls-2 {
        opacity: .65;
      }

      .cls-3 {
        fill: #6b9a2e;
      }

      .cls-4 {
        opacity: .15;
      }

      .cls-5 {
        fill: none;
        stroke: #8cc63f;
        stroke-miterlimit: 10;
        stroke-width: 25px;
      }

      .cls-6 {
        opacity: .37;
      }
    </style>
  </defs>
  <g id="Layer_1" data-name="Layer 1">
    <rect class="cls-3" width="500" height="500"/>
  </g>
  <g id="Layer_3" data-name="Layer 3">
    <g class="cls-4">
      <g class="cls-6">
        <path class="cls-5" d="m-.38,445.44c41.67,0,41.67,20,83.33,20s41.67-20,83.33-20,41.67,20,83.33,20,41.67-20,83.33-20,41.67,20,83.34,20,41.67-20,83.34-20"/>
      </g>
      <g class="cls-6">
        <path class="cls-5" d="m-.38,390.68c41.67,0,41.67,20,83.33,20s41.67-20,83.33-20,41.67,20,83.33,20,41.67-20,83.33-20,41.67,20,83.34,20,41.67-20,83.34-20"/>
      </g>
      <g class="cls-6">
        <path class="cls-5" d="m-.38,335.92c41.67,0,41.67,20,83.33,20s41.67-20,83.33-20,41.67,20,83.33,20,41.67-20,83.33-20,41.67,20,83.34,20,41.67-20,83.34-20"/>
      </g>
      <g class="cls-6">
        <path class="cls-5" d="m-.38,281.16c41.67,0,41.67,20,83.33,20s41.67-20,83.33-20,41.67,20,83.33,20,41.67-20,83.33-20,41.67,20,83.34,20,41.67-20,83.34-20"/>
      </g>
      <g class="cls-6">
        <path class="cls-5" d="m-.38,226.4c41.67,0,41.67,20,83.33,20s41.67-20,83.33-20,41.67,20,83.33,20,41.67-20,83.33-20,41.67,20,83.34,20,41.67-20,83.34-20"/>
      </g>
      <g class="cls-6">
        <path class="cls-5" d="m-.38,171.63c41.67,0,41.67,20,83.33,20s41.67-20,83.33-20,41.67,20,83.33,20,41.67-20,83.33-20,41.67,20,83.34,20,41.67-20,83.34-20"/>
      </g>
      <g class="cls-6">
        <path class="cls-5" d="m-.38,116.87c41.67,0,41.67,20,83.33,20s41.67-20,83.33-20,41.67,20,83.33,20,41.67-20,83.33-20,41.67,20,83.34,20,41.67-20,83.34-20"/>
      </g>
      <g class="cls-6">
        <path class="cls-5" d="m-.38,62.11c41.67,0,41.67,20,83.33,20s41.67-20,83.33-20,41.67,20,83.33,20,41.67-20,83.33-20,41.67,20,83.34,20,41.67-20,83.34-20"/>
      </g>
      <g class="cls-6">
        <path class="cls-5" d="m-.38,7.35c41.67,0,41.67,20,83.33,20S124.62,7.35,166.28,7.35s41.67,20,83.33,20,41.67-20,83.33-20,41.67,20,83.34,20,41.67-20,83.34-20"/>
      </g>
    </g>
  </g>
  <g id="Layer_2" data-name="Layer 2">
    <g class="cls-2">
      <g class="cls-6">
        <path class="cls-5" d="m0,459.05c41.67,0,41.67,20,83.33,20s41.67-20,83.33-20,41.67,20,83.33,20,41.67-20,83.33-20,41.67,20,83.34,20,41.67-20,83.34-20"/>
      </g>
      <g class="cls-6">
        <path class="cls-5" d="m0,404.29c41.67,0,41.67,20,83.33,20s41.67-20,83.33-20,41.67,20,83.33,20,41.67-20,83.33-20,41.67,20,83.34,20,41.67-20,83.34-20"/>
      </g>
      <g class="cls-6">
        <path class="cls-5" d="m0,349.52c41.67,0,41.67,20,83.33,20s41.67-20,83.33-20,41.67,20,83.33,20,41.67-20,83.33-20,41.67,20,83.34,20,41.67-20,83.34-20"/>
      </g>
      <g class="cls-6">
        <path class="cls-5" d="m0,294.76c41.67,0,41.67,20,83.33,20s41.67-20,83.33-20,41.67,20,83.33,20,41.67-20,83.33-20,41.67,20,83.34,20,41.67-20,83.34-20"/>
      </g>
      <g class="cls-6">
        <path class="cls-5" d="m0,240c41.67,0,41.67,20,83.33,20s41.67-20,83.33-20,41.67,20,83.33,20,41.67-20,83.33-20,41.67,20,83.34,20,41.67-20,83.34-20"/>
      </g>
      <g class="cls-6">
        <path class="cls-5" d="m0,185.24c41.67,0,41.67,20,83.33,20s41.67-20,83.33-20,41.67,20,83.33,20,41.67-20,83.33-20,41.67,20,83.34,20,41.67-20,83.34-20"/>
      </g>
      <g class="cls-6">
        <path class="cls-5" d="m0,130.48c41.67,0,41.67,20,83.33,20s41.67-20,83.33-20,41.67,20,83.33,20,41.67-20,83.33-20,41.67,20,83.34,20,41.67-20,83.34-20"/>
      </g>
      <g class="cls-6">
        <path class="cls-5" d="m0,75.71c41.67,0,41.67,20,83.33,20s41.67-20,83.33-20,41.67,20,83.33,20,41.67-20,83.33-20,41.67,20,83.34,20,41.67-20,83.34-20"/>
      </g>
      <g class="cls-6">
        <path class="cls-5" d="m0,20.95c41.67,0,41.67,20,83.33,20s41.67-20,83.33-20,41.67,20,83.33,20,41.67-20,83.33-20,41.67,20,83.34,20,41.67-20,83.34-20"/>
      </g>
    </g>
  </g>
  <g id="Layer_4" data-name="Layer 4">
    <rect class="cls-1" x="0" y="-.11" width="500" height="500"/>
  </g>
</svg>