<?xml version="1.0" encoding="UTF-8" standalone="no"?>
<!-- Created with Inkscape (http://www.inkscape.org/) -->

<svg
   width="420.0mm"
   height="297.0mm"
   viewBox="0 0 420.0 297.0"
   version="1.1"
   id="SVGRoot"
   sodipodi:docname="SeaBackground.svg"
   inkscape:version="1.2.2 (732a01da63, 2022-12-09)"
   xmlns:inkscape="http://www.inkscape.org/namespaces/inkscape"
   xmlns:sodipodi="http://sodipodi.sourceforge.net/DTD/sodipodi-0.dtd"
   xmlns="http://www.w3.org/2000/svg"
   xmlns:svg="http://www.w3.org/2000/svg">
  <sodipodi:namedview
     id="namedview8641"
     pagecolor="#ffffff"
     bordercolor="#cccccc"
     borderopacity="1"
     inkscape:showpageshadow="0"
     inkscape:pageopacity="1"
     inkscape:pagecheckerboard="0"
     inkscape:deskcolor="#d1d1d1"
     inkscape:document-units="mm"
     showgrid="false"
     inkscape:zoom="0.914906"
     inkscape:cx="702.25793"
     inkscape:cy="589.13156"
     inkscape:window-width="2560"
     inkscape:window-height="1377"
     inkscape:window-x="-8"
     inkscape:window-y="-8"
     inkscape:window-maximized="1"
     inkscape:current-layer="layer6"
     inkscape:lockguides="false" />
  <defs
     id="defs8636">
    <inkscape:path-effect
       effect="bspline"
       id="path-effect16767"
       is_visible="true"
       lpeversion="1"
       weight="33.333333"
       steps="2"
       helper_size="0"
       apply_no_weight="true"
       apply_with_weight="true"
       only_selected="false" />
    <inkscape:path-effect
       effect="bspline"
       id="path-effect16763"
       is_visible="true"
       lpeversion="1"
       weight="33.333333"
       steps="2"
       helper_size="0"
       apply_no_weight="true"
       apply_with_weight="true"
       only_selected="false" />
    <inkscape:path-effect
       effect="bspline"
       id="path-effect16759"
       is_visible="true"
       lpeversion="1"
       weight="33.333333"
       steps="2"
       helper_size="0"
       apply_no_weight="true"
       apply_with_weight="true"
       only_selected="false" />
    <inkscape:path-effect
       effect="bspline"
       id="path-effect16743"
       is_visible="true"
       lpeversion="1"
       weight="33.333333"
       steps="2"
       helper_size="0"
       apply_no_weight="true"
       apply_with_weight="true"
       only_selected="false" />
    <inkscape:path-effect
       effect="bspline"
       id="path-effect16739"
       is_visible="true"
       lpeversion="1"
       weight="33.333333"
       steps="2"
       helper_size="0"
       apply_no_weight="true"
       apply_with_weight="true"
       only_selected="false" />
    <inkscape:path-effect
       effect="bspline"
       id="path-effect16735"
       is_visible="true"
       lpeversion="1"
       weight="33.333333"
       steps="2"
       helper_size="0"
       apply_no_weight="true"
       apply_with_weight="true"
       only_selected="false" />
    <inkscape:path-effect
       effect="bspline"
       id="path-effect16711"
       is_visible="true"
       lpeversion="1"
       weight="33.333333"
       steps="2"
       helper_size="0"
       apply_no_weight="true"
       apply_with_weight="true"
       only_selected="false" />
    <inkscape:path-effect
       effect="bspline"
       id="path-effect16707"
       is_visible="true"
       lpeversion="1"
       weight="33.333333"
       steps="2"
       helper_size="0"
       apply_no_weight="true"
       apply_with_weight="true"
       only_selected="false" />
    <inkscape:path-effect
       effect="bspline"
       id="path-effect16703"
       is_visible="true"
       lpeversion="1"
       weight="33.333333"
       steps="2"
       helper_size="0"
       apply_no_weight="true"
       apply_with_weight="true"
       only_selected="false" />
    <inkscape:path-effect
       effect="bspline"
       id="path-effect16699"
       is_visible="true"
       lpeversion="1"
       weight="33.333333"
       steps="2"
       helper_size="0"
       apply_no_weight="true"
       apply_with_weight="true"
       only_selected="false" />
  </defs>
  <g
     inkscape:label="Sea_LighterBlue"
     inkscape:groupmode="layer"
     id="layer1"
     style="display:inline">
    <path
       id="rect9133"
       style="display:inline;fill:#b4dbfa;fill-opacity:1;stroke-width:0.264583;paint-order:stroke markers fill"
       d="m -4.9164958,-1.4459066 c -0.9612706,0 -1.7347778,0.77402389 -1.7347778,1.73529462 V 298.15699 c 0,0.96128 0.7735072,1.73478 1.7347778,1.73478 H 425.40091 c 0.96127,0 1.73529,-0.7735 1.73529,-1.73478 V 0.28938802 c 0,-0.96127073 -0.77402,-1.73529462 -1.73529,-1.73529462 z" />
  </g>
  <g
     inkscape:groupmode="layer"
     id="layer5"
     inkscape:label="Sea_DarkerBlue2"
     style="display:none">
    <path
       style="display:inline;fill:#8fc6f3;fill-opacity:1;stroke-width:0.264583;paint-order:stroke markers fill"
       d="M -6.36222,17.351509 C 6.6514938,9.7360768 19.665125,2.1206927 41.885126,2.3136304 64.105127,2.5065681 95.530009,10.507381 133.80017,16.773224 c 38.27015,6.265844 83.38317,10.796425 119.62877,9.735952 36.2456,-1.060473 63.62187,-7.711752 88.29986,-4.192997 24.67798,3.518756 46.65613,17.206901 57.01871,24.388383 10.36257,7.181483 9.10945,7.856243 -1.10875,5.060736 -10.2182,-2.795508 -29.40087,-9.061203 -52.10273,-10.651792 -22.70185,-1.590589 -48.9214,1.494064 -82.90185,4.241416 -33.98044,2.747352 -75.71962,5.157235 -111.48327,2.747275 -35.76366,-2.40996 -65.549822,-9.63961 -91.722003,-8.049017 -26.172181,1.590594 -48.728692,12.001292 -71.285772,22.412253"
       id="path16765"
       inkscape:path-effect="#path-effect16767"
       inkscape:original-d="M -6.36222,17.351509 C 6.6516765,9.736389 19.665308,2.1210046 32.678677,-5.4946446 64.10508,2.5067537 95.529962,10.507567 126.95521,18.508276 c 45.11509,4.531027 90.22811,9.061609 135.34177,13.592016 27.37763,-6.651281 54.75391,-13.302559 82.13048,-19.954236 21.97928,13.688951 43.95743,27.37709 65.93573,41.065239 -1.25294,0.675058 -2.50606,1.349825 -3.75949,2.024343 -19.18319,-6.265685 -38.36586,-12.531381 -57.54918,-18.797468 -26.22031,3.085039 -52.43986,6.169689 -78.66017,9.254138 -41.74059,2.410243 -83.47977,4.820126 -125.22006,7.229795 C 115.3872,45.692427 85.601042,38.462775 55.81402,31.232715 33.256873,41.644093 10.700362,52.054791 -11.856865,62.465433" />
    <path
       style="display:inline;fill:#8fc6f3;fill-opacity:1;stroke-width:0.264583;paint-order:stroke markers fill"
       d="m 426.55794,135.63096 c -16.29082,-7.90442 -32.58196,-15.80899 -55.28389,-15.76082 -22.70193,0.0482 -51.81332,8.04899 -82.41973,13.20628 -30.60642,5.1573 -62.70608,7.47079 -93.84267,4.67524 -31.13658,-2.79555 -61.30832,-10.69997 -83.72096,-9.83236 -22.412634,0.86761 -37.064728,10.50714 -44.198105,15.95378 -7.133377,5.44663 -6.747795,6.69977 1.494372,5.06079 8.242166,-1.63898 24.340191,-6.16956 44.053733,-5.44645 19.71355,0.7231 43.04122,6.69961 66.12859,11.51949 23.08737,4.81989 45.93307,8.48291 69.165,7.90444 23.23193,-0.57848 46.8488,-5.39825 69.16501,-6.79595 22.31622,-1.39771 43.3304,0.62659 61.59785,4.81999 18.26745,4.19339 33.7871,10.55549 49.30675,16.91758"
       id="path16761"
       inkscape:path-effect="#path-effect16763"
       inkscape:original-d="m 426.55794,135.63096 c -16.29087,-7.90431 -32.58201,-15.80889 -48.87344,-23.71373 -29.11229,8.0014 -58.22368,16.00221 -87.33591,24.00292 -32.10067,2.31385 -64.20033,4.62734 -96.30088,6.94061 -30.17269,-7.90447 -60.34443,-15.80889 -90.51704,-23.71373 -14.652415,9.64018 -29.304505,19.27972 -43.957156,28.91918 0.385863,1.25345 0.771443,2.50659 1.156769,3.75949 16.09893,-4.53049 32.196952,-9.06108 48.295037,-13.59201 23.32887,5.97701 46.65654,11.95353 69.98441,17.92989 22.84688,3.66344 45.69258,7.32646 68.53847,10.98929 23.61807,-4.81969 47.23494,-9.63946 70.85199,-14.45959 21.0153,2.02465 42.02948,4.04895 63.04383,6.07303 15.52051,6.36261 31.04017,12.7247 46.55987,19.08666" />
    <path
       style="display:inline;fill:#8fc6f3;fill-opacity:1;stroke-width:0.264583;paint-order:stroke markers fill"
       d="M -6.6514119,250.7293 C 6.8442555,241.08954 20.33987,231.44981 47.717244,233.66716 c 27.377374,2.21735 68.634576,16.29107 104.060866,25.06322 35.42628,8.77215 65.01965,12.24238 94.56567,11.42292 29.54602,-0.81946 59.04299,-5.92841 77.64773,-9.54334 18.60473,-3.61492 26.31637,-5.73562 38.46265,-3.95214 12.14628,1.78349 28.72628,7.47082 37.06453,10.50745 8.33825,3.03662 8.43464,3.42219 2.07241,2.89185 -6.36223,-0.53034 -19.18284,-1.97627 -30.07583,-2.60287 -10.89299,-0.6266 -19.85776,-0.43381 -36.67936,2.45814 -16.82161,2.89196 -41.49882,8.48289 -66.22494,11.95322 -24.72612,3.47032 -49.49973,4.81986 -75.96103,3.66308 -26.46131,-1.15678 -54.60875,-4.8198 -79.76867,-7.47074 -25.159913,-2.65095 -47.330843,-4.28967 -67.767301,-2.6027 -20.436458,1.68697 -39.1371555,6.69952 -57.838409,11.71223"
       id="path16757"
       inkscape:path-effect="#path-effect16759"
       inkscape:original-d="M -6.6514119,250.7293 C 6.844471,241.08984 20.340089,231.45012 33.835443,221.81012 c 41.259122,14.07455 82.516327,28.14827 123.774097,42.22201 29.59482,3.47064 59.18819,6.94086 88.78189,10.4109 29.49842,-5.10889 58.99539,-10.21784 88.4927,-15.32716 7.7122,-2.12052 15.42383,-4.24122 23.13535,-6.36222 16.58091,5.68781 33.16091,11.37514 49.74098,17.06232 0.0967,0.38587 0.19306,0.77144 0.28919,1.15676 -12.82081,-1.44571 -25.64141,-2.89166 -38.46251,-4.33787 -8.96485,0.19306 -17.92962,0.38584 -26.89484,0.57838 -24.67793,5.59141 -49.35514,11.18235 -74.03309,16.77312 -24.77434,1.34985 -49.54795,2.69939 -74.32231,4.04868 -28.1483,-3.66289 -56.29574,-7.32591 -84.44401,-10.98928 -22.171552,-1.63851 -44.342481,-3.27723 -66.514117,-4.91625 -18.701181,5.01301 -37.4018776,10.02557 -56.103213,15.03797" />
  </g>
  <g
     inkscape:groupmode="layer"
     id="layer4"
     inkscape:label="Sea_DarkerBlue"
     style="display:none">
    <path
       style="display:inline;fill:#8fc6f3;fill-opacity:1;stroke-width:0.264583;paint-order:stroke markers fill"
       d="m 427.42551,158.76631 c -17.06201,-9.83235 -34.12432,-19.66486 -59.95921,-20.05048 -25.83488,-0.38561 -60.44081,8.67555 -112.30317,7.95251 -51.86237,-0.72304 -120.97783,-11.23013 -155.488207,-16.532 -34.51038,-5.30186 -34.413969,-5.39827 -19.471939,-1.68686 14.94203,3.71141 44.728196,11.23024 75.382846,18.5083 30.65464,7.27806 62.17591,14.31492 95.33691,17.78519 33.16099,3.47027 67.9597,3.37387 97.65033,7.27809 29.69063,3.90422 54.27145,11.80864 78.85244,19.71312"
       id="path16705"
       inkscape:path-effect="#path-effect16707"
       inkscape:original-d="m 427.42551,158.76631 c -17.06206,-9.83226 -34.12437,-19.66478 -51.18696,-29.49757 -34.60705,9.06179 -69.21298,18.12295 -103.81985,27.18403 -69.11797,-10.50725 -138.23343,-21.01434 -207.350542,-31.52191 0.09667,-0.0961 0.193061,-0.19253 0.289192,-0.28919 29.787617,7.5194 59.57378,15.03824 89.36027,22.55696 31.52281,7.03741 63.04408,14.07427 94.56573,21.11101 34.80038,-0.0961 69.59909,-0.19253 104.39823,-0.2892 24.58207,7.90501 49.16289,15.80942 73.74393,23.71374" />
    <path
       style="display:inline;fill:#8fc6f3;fill-opacity:1;stroke-width:0.264583;paint-order:stroke markers fill"
       d="m -6.36222,226.148 c 18.122818,-7.61544 36.245505,-15.23082 66.177368,-12.62789 29.931863,2.60293 71.671042,15.42351 104.783732,22.46048 33.11269,7.03697 57.59711,8.29011 76.73204,6.41028 19.13493,-1.87983 32.91948,-6.89239 39.52259,-8.96487 6.6031,-2.07247 6.02474,-1.20491 1.68684,1.63881 -4.33791,2.84372 -12.43511,7.66348 -29.20842,11.9532 -16.77331,4.28973 -42.22168,8.04914 -69.45417,7.90454 -27.23248,-0.1446 -56.24748,-4.1932 -78.75641,-6.69955 -22.508929,-2.50636 -38.510556,-3.47031 -56.055138,0.96403 -17.544582,4.43434 -36.630862,14.26666 -55.7176239,24.09924"
       id="path16733"
       inkscape:path-effect="#path-effect16735"
       inkscape:original-d="m -6.36222,226.148 c 18.122952,-7.61512 36.24564,-15.2305 54.368061,-22.84615 41.741118,12.82136 83.480299,25.64194 125.220059,38.46251 24.48566,1.25345 48.97008,2.50659 73.45472,3.75949 13.78535,-5.01249 27.5699,-10.02505 41.35442,-15.03797 -0.57811,0.86786 -1.15649,1.73541 -1.73513,2.60273 -8.09729,4.82022 -16.19449,9.63999 -24.29212,14.45959 -25.44913,3.75983 -50.8975,7.51925 -76.34664,11.27848 -29.0159,-4.04851 -58.0309,-8.09711 -87.046741,-12.14606 -16.002003,-0.96373 -32.00363,-1.92768 -48.005841,-2.89192 -19.086777,9.83298 -38.173055,19.66531 -57.2599799,29.49757" />
    <path
       style="display:inline;fill:#8fc6f3;fill-opacity:1;stroke-width:0.264583;paint-order:stroke markers fill"
       d="M -6.9406036,18.219085 C 5.1091313,10.892846 17.15879,3.5666528 40.198199,5.2537849 63.237608,6.940917 97.265165,17.6408 129.89593,23.279999 c 32.63076,5.639199 63.86285,6.217571 87.6249,4.193155 23.76204,-2.024416 40.05286,-6.651394 49.59627,-8.964903 9.5434,-2.313509 12.33886,-2.313509 9.06119,-0.433749 -3.27767,1.87976 -12.62801,5.639173 -27.71437,10.555498 -15.08637,4.916324 -35.90776,10.98923 -61.88709,13.495578 -25.97932,2.506347 -57.11502,1.445998 -85.16687,-0.289168 C 73.358111,40.101244 48.391719,37.69136 31.280991,39.812136 14.170263,41.932911 4.9163101,48.58419 -0.38559426,52.825729 -5.6874986,57.067267 -7.0370335,58.898779 -8.3865626,60.730283"
       id="path16741"
       inkscape:path-effect="#path-effect16743"
       inkscape:original-d="M -6.9406036,18.219085 C 5.10932,10.893156 17.158979,3.5669638 29.208372,-3.7594936 63.237556,6.9410823 97.265113,17.640965 131.29309,28.340798 c 31.2336,0.57866 62.46569,1.157031 93.69814,1.735151 16.29173,-4.626897 32.58255,-9.253874 48.87342,-13.881207 2.79585,2.64e-4 5.59131,2.64e-4 8.38658,0 -9.35048,3.759833 -18.70082,7.519251 -28.05162,11.27848 -20.82197,6.073415 -41.64336,12.146322 -62.46543,18.219086 C 160.5975,44.632181 129.4618,43.571831 98.325219,42.511196 73.358088,40.101482 48.391696,37.691599 23.424537,35.281401 14.170479,41.933211 4.9165255,48.58449 -4.3378773,55.235638 c -1.3493242,1.831848 -2.698859,3.66336 -4.0486853,5.494645" />
  </g>
  <g
     inkscape:groupmode="layer"
     id="layer6"
     inkscape:label="Sea_DarkerBlue3"
     style="display:inline">
    <path
       style="display:inline;fill:#8fc6f3;fill-opacity:1;stroke-width:0.264583;paint-order:stroke markers fill"
       d="M -6.36222,232.79941 C 15.616497,224.1236 37.595074,215.44785 66.273706,218.34 c 28.678632,2.89216 64.055734,17.35146 104.832184,21.159 40.77646,3.80754 86.94983,-3.03653 110.32622,-6.26571 23.37639,-3.22918 23.95475,-2.84361 20.72532,-1.92794 -3.22942,0.91566 -10.26628,2.3616 -33.54661,6.16935 -23.28034,3.80776 -62.80243,9.97706 -98.95169,9.39866 -36.14926,-0.57841 -68.92368,-7.90446 -97.746788,-6.94045 -28.823113,0.964 -53.693113,10.21796 -78.5637539,19.47215"
       id="path16697"
       inkscape:path-effect="#path-effect16699"
       inkscape:original-d="m -6.36222,232.79941 c 21.978843,-8.67549 43.957421,-17.35124 65.935734,-26.02726 35.37877,14.46014 70.755866,28.91945 106.133396,43.37877 46.17548,-6.84408 92.34885,-13.68815 138.52288,-20.53262 0.57867,0.38586 1.15703,0.77144 1.73514,1.15677 -7.03686,1.44625 -14.07372,2.89218 -21.111,4.33788 -39.5234,6.16981 -79.04549,12.33911 -118.56864,18.50827 -32.77546,-7.32607 -65.54988,-14.65212 -98.325212,-21.97858 -24.87073,9.25459 -49.740729,18.50855 -74.6114899,27.76242" />
    <path
       style="display:inline;fill:#8fc6f3;fill-opacity:1;stroke-width:0.264583;paint-order:stroke markers fill"
       d="m -6.36222,65.646543 c 20.050818,-5.109103 40.101449,-10.218158 68.057083,-7.036859 27.955634,3.181299 63.814697,14.652345 99.241027,21.255531 35.42633,6.603187 70.41784,8.338303 89.21525,8.531049 18.79741,0.192746 21.40007,-1.15678 20.91806,-1.012171 -0.48202,0.14461 -4.04865,1.783332 -8.00091,2.84372 -3.95227,1.060388 -8.29006,1.542364 -23.66568,1.879769 -15.37561,0.337404 -41.78794,0.530194 -76.53958,-1.25318 C 128.1114,89.071028 85.022681,85.31161 55.18746,88.107187 25.352238,90.902765 8.7722386,100.25311 -7.808179,109.6037"
       id="path16701"
       inkscape:path-effect="#path-effect16703"
       inkscape:original-d="M -6.36222,65.646543 C 13.688677,60.537751 33.739309,55.428697 53.789677,50.319376 89.650445,61.791145 125.50951,73.262193 161.36903,84.733203 c 34.99318,1.73545 69.98469,3.470566 104.97664,5.205452 2.60305,-1.349325 5.2057,-2.698858 7.80817,-4.048686 -3.56651,1.639052 -7.13314,3.277772 -10.7001,4.916263 -4.33769,0.482258 -8.67548,0.964237 -13.01363,1.445958 -26.41311,0.193061 -52.82544,0.385853 -79.23855,0.578382 C 128.11138,89.071269 85.02266,85.311849 41.932814,81.552091 25.352416,90.90308 8.7724164,100.25343 -7.808179,109.6037" />
    <path
       style="display:inline;fill:#8fc6f3;fill-opacity:1;stroke-width:0.264583;paint-order:stroke markers fill"
       d="m 426.84713,23.713729 c -14.55569,-4.337787 -29.11166,-8.675659 -45.74046,-7.5189 -16.6288,1.15676 -35.32949,7.808037 -71.91274,8.24181 -36.58325,0.433773 -91.04662,-5.349948 -118.03784,-8.048967 -26.99123,-2.69902 -26.50926,-2.313437 -23.18348,-1.301324 3.32578,1.012112 9.49508,2.650833 35.81199,7.277962 26.31692,4.627128 72.77947,12.242359 104.0605,14.74862 31.28104,2.506261 47.37906,-0.09641 64.7308,1.012261 17.35174,1.108672 35.95605,5.928441 54.56042,10.748226"
       id="path16709"
       inkscape:path-effect="#path-effect16711"
       inkscape:original-d="m 426.84713,23.713729 c -14.55574,-4.337613 -29.11171,-8.67549 -43.66797,-13.013632 -18.70118,6.65181 -37.40187,13.303088 -56.10321,19.954237 -54.46529,-5.783689 -108.92866,-11.56741 -163.39338,-17.35151 0.48226,0.385861 0.96424,0.771442 1.44596,1.156767 6.16981,1.639051 12.33911,3.277772 18.50827,4.916261 46.46468,7.615802 92.92723,15.231034 139.39045,22.846152 16.09894,-2.602513 32.19696,-5.205187 48.29505,-7.808177 18.60529,4.820224 37.2096,9.639991 55.81402,14.45959" />
    <path
       style="display:inline;fill:#8fc6f3;fill-opacity:1;stroke-width:0.264583;paint-order:stroke markers fill"
       d="m 427.42551,155.5852 c -21.01429,-10.41075 -42.0289,-20.82166 -71.47871,-21.35185 -29.44981,-0.53019 -67.33319,8.82016 -104.59105,12.86886 -37.25786,4.0487 -73.8881,2.79556 -100.7349,0.57841 -26.84679,-2.21715 -43.90877,-5.39819 -51.76513,-6.55488 -7.85636,-1.15669 -6.506825,-0.28913 4.09707,2.40998 10.6039,2.6991 30.46134,7.22969 50.22297,10.45899 19.76162,3.22931 39.42627,5.15721 63.52587,6.79597 24.0996,1.63876 52.63262,2.9883 76.49113,2.69907 23.8585,-0.28923 43.04116,-2.21714 64.63443,2.31373 21.59327,4.53086 45.59571,15.51993 69.59832,26.50908"
       id="path16737"
       inkscape:path-effect="#path-effect16739"
       inkscape:original-d="m 427.42551,155.5852 c -21.01435,-10.41064 -42.02896,-20.82155 -63.04381,-31.23272 -37.88463,9.35099 -75.76801,18.70134 -113.6524,28.05161 -36.63142,-1.25293 -73.26166,-2.50607 -109.89288,-3.7595 -17.0624,-3.18091 -34.12438,-6.36195 -51.186957,-9.54333 1.349854,0.86786 2.699388,1.73542 4.048686,2.60273 19.858501,4.53103 39.715941,9.06161 59.573511,13.59202 19.6657,1.92824 39.33035,3.85615 58.99513,5.78383 28.53443,1.34986 57.06745,2.69939 85.60078,4.04869 19.18372,-1.92772 38.36638,-3.85563 57.54918,-5.78384 24.00366,10.98977 48.0061,21.97884 72.00876,32.96787" />
  </g>
</svg>
