<?xml version="1.0" encoding="UTF-8"?>
<svg id="Layer_2" data-name="Layer 2" xmlns="http://www.w3.org/2000/svg" viewBox="0 0 595.28 841.89">
  <defs>
    <style>
      .cls-1 {
        fill: #231f20;
        opacity: .49;
      }
    </style>
  </defs>
  <g id="Layer_6" data-name="Layer 6">
    <g id="Layer_4" data-name="Layer 4">
      <path class="cls-1" d="m186.88,519.31c-.52.23.39-5.45,1.04-6.96.35-.81,2.1-2.85,2.1-2.85.16-.22.2-.51.11-.77l-1.13-3.02c-.19-.51-.53-.94-.98-1.24-2.68-1.8-12.42-8.26-16.44-9.72-.88-.32-4.68-.03-5.98.15-3.35.47-13.93,2.46-13.93,2.46-.26.05-.41-.27-.21-.44,2.61-2.15,11.89-9.51,16.16-9.81,2.77-.19,8.92.11,11.04,1.29,2.42,1.34,9.81,5.09,9.81,5.09.18.1.41,0,.45-.21l.75-3.24s.55-2.53,1.78-3.95c.01-.02.91-.53.97-.85.22-1.16.71-3.48,1-4.47.07-.24.41-.24.48,0,.3.99.79,3.31,1,4.47.06.32.95.83.97.85,1.24,1.42,1.78,3.95,1.78,3.95l.75,3.24c.05.2.27.3.45.21,0,0,7.39-3.75,9.81-5.09,2.13-1.18,8.27-1.48,11.04-1.29,4.27.3,13.55,7.66,16.16,9.81.2.17.05.49-.21.44,0,0-10.58-1.99-13.93-2.46-1.3-.18-5.11-.47-5.98-.15-4.02,1.46-13.77,7.92-16.44,9.72-.45.3-.79.74-.98,1.24l-1.13,3.02c-.1.26-.06.54.11.77,0,0,1.75,2.04,2.1,2.85.65,1.51,1.55,7.22,1.04,6.96-3.02-1.54-10.36-1.39-13.59,0Z"/>
    </g>
  </g>
</svg>