<?xml version="1.0" encoding="UTF-8"?>
<svg id="Layer_2" data-name="Layer 2" xmlns="http://www.w3.org/2000/svg" viewBox="0 0 595.28 841.89">
  <defs>
    <style>
      .cls-1 {
        fill: #fbb040;
      }

      .cls-2 {
        fill: #e6e7e8;
      }

      .cls-3 {
        fill: #414042;
      }
    </style>
  </defs>
  <g id="Layer_6" data-name="Layer 6">
    <g id="Layer_4" data-name="Layer 4">
      <path class="cls-2" d="m156.5,501.66c-1.13.49.84-11.78,2.26-15.05.76-1.76,4.55-6.16,4.55-6.16.35-.48.44-1.1.23-1.65l-2.44-6.53c-.41-1.1-1.15-2.04-2.12-2.69-5.79-3.89-26.87-17.88-35.57-21.03-1.9-.69-10.13-.07-12.94.33-7.25,1.01-30.13,5.33-30.13,5.33-.56.11-.89-.59-.46-.95,5.65-4.65,25.72-20.57,34.96-21.22,6-.42,19.29.24,23.89,2.79,5.23,2.9,21.22,11.01,21.22,11.01.4.21.88-.02.98-.45l1.63-7.01s1.18-5.48,3.86-8.55c.03-.03,1.96-1.14,2.09-1.83.47-2.5,1.53-7.53,2.17-9.66.16-.52.89-.52,1.04,0,.64,2.14,1.7,7.16,2.17,9.66.13.69,2.06,1.8,2.09,1.83,2.68,3.07,3.86,8.55,3.86,8.55l1.63,7.01c.1.44.59.66.98.45,0,0,15.99-8.11,21.22-11.01,4.6-2.55,17.89-3.21,23.89-2.79,9.25.65,29.32,16.57,34.96,21.22.44.36.1,1.06-.46.95,0,0-22.88-4.32-30.13-5.33-2.81-.39-11.05-1.01-12.94-.33-8.7,3.15-29.79,17.14-35.57,21.03-.97.65-1.71,1.59-2.12,2.69l-2.44,6.53c-.21.56-.12,1.18.23,1.65,0,0,3.79,4.4,4.55,6.16,1.42,3.27,3.36,15.62,2.26,15.05-6.53-3.34-22.42-3.01-29.4,0Z"/>
      <path class="cls-3" d="m250.11,443.7c5.4,3.85,10.12,7.64,12.43,9.54.44.36.1,1.06-.46.95,0,0-3.75-.71-8.69-1.61l-3.28-8.88Z"/>
      <path class="cls-3" d="m92.32,443.7c-5.4,3.85-10.12,7.64-12.43,9.54-.44.36-.1,1.06.46.95,0,0,3.75-.71,8.69-1.61l3.28-8.88Z"/>
    </g>
  </g>
  <g id="Layer_5" data-name="Layer 5">
    <path class="cls-1" d="m168.48,427.99c.47-2.5,1.55-7.53,2.2-9.66.16-.52.9-.52,1.05,0,.65,2.14,1.73,7.16,2.2,9.66h-5.45Z"/>
    <polygon class="cls-1" points="168.32 428.31 174.09 428.31 173.93 427.99 168.48 427.99 168.32 428.31"/>
  </g>
</svg>