<?xml version="1.0" encoding="UTF-8" standalone="no"?>
<!-- Created with Inkscape (http://www.inkscape.org/) -->

<svg
   width="297mm"
   height="210mm"
   viewBox="0 0 297 210"
   version="1.1"
   id="svg5"
   inkscape:version="1.2.2 (732a01da63, 2022-12-09)"
   sodipodi:docname="WaterAroundBoard2.svg"
   xml:space="preserve"
   xmlns:inkscape="http://www.inkscape.org/namespaces/inkscape"
   xmlns:sodipodi="http://sodipodi.sourceforge.net/DTD/sodipodi-0.dtd"
   xmlns="http://www.w3.org/2000/svg"
   xmlns:svg="http://www.w3.org/2000/svg"><sodipodi:namedview
     id="namedview7"
     pagecolor="#ffffff"
     bordercolor="#cccccc"
     borderopacity="1"
     inkscape:showpageshadow="0"
     inkscape:pageopacity="1"
     inkscape:pagecheckerboard="0"
     inkscape:deskcolor="#d1d1d1"
     inkscape:document-units="mm"
     showgrid="false"
     inkscape:zoom="0.914906"
     inkscape:cx="565.63188"
     inkscape:cy="450.31948"
     inkscape:window-width="2560"
     inkscape:window-height="1377"
     inkscape:window-x="-8"
     inkscape:window-y="-8"
     inkscape:window-maximized="1"
     inkscape:current-layer="layer11" /><defs
     id="defs2"><inkscape:path-effect
       effect="bspline"
       id="path-effect13325"
       is_visible="true"
       lpeversion="1"
       weight="33.333333"
       steps="2"
       helper_size="0"
       apply_no_weight="true"
       apply_with_weight="true"
       only_selected="false" /><inkscape:path-effect
       effect="bspline"
       id="path-effect13284"
       is_visible="true"
       lpeversion="1"
       weight="33.333333"
       steps="2"
       helper_size="0"
       apply_no_weight="true"
       apply_with_weight="true"
       only_selected="false" /><inkscape:path-effect
       effect="bspline"
       id="path-effect13224"
       is_visible="true"
       lpeversion="1"
       weight="33.333333"
       steps="2"
       helper_size="0"
       apply_no_weight="true"
       apply_with_weight="true"
       only_selected="false" /><inkscape:path-effect
       effect="bspline"
       id="path-effect13180"
       is_visible="true"
       lpeversion="1"
       weight="33.333333"
       steps="2"
       helper_size="0"
       apply_no_weight="true"
       apply_with_weight="true"
       only_selected="false" /><inkscape:path-effect
       effect="bspline"
       id="path-effect13172"
       is_visible="true"
       lpeversion="1"
       weight="33.333333"
       steps="2"
       helper_size="0"
       apply_no_weight="true"
       apply_with_weight="true"
       only_selected="false" /><inkscape:path-effect
       effect="bspline"
       id="path-effect13168"
       is_visible="true"
       lpeversion="1"
       weight="33.333333"
       steps="2"
       helper_size="0"
       apply_no_weight="true"
       apply_with_weight="true"
       only_selected="false" /><inkscape:path-effect
       effect="bspline"
       id="path-effect13133"
       is_visible="true"
       lpeversion="1"
       weight="33.333333"
       steps="2"
       helper_size="0"
       apply_no_weight="true"
       apply_with_weight="true"
       only_selected="false" /><inkscape:path-effect
       effect="bspline"
       id="path-effect13129"
       is_visible="true"
       lpeversion="1"
       weight="33.333333"
       steps="2"
       helper_size="0"
       apply_no_weight="true"
       apply_with_weight="true"
       only_selected="false" /><inkscape:path-effect
       effect="bspline"
       id="path-effect13117"
       is_visible="true"
       lpeversion="1"
       weight="33.333333"
       steps="2"
       helper_size="0"
       apply_no_weight="true"
       apply_with_weight="true"
       only_selected="false" /><inkscape:path-effect
       effect="bspline"
       id="path-effect13110"
       is_visible="true"
       lpeversion="1"
       weight="33.333333"
       steps="2"
       helper_size="0"
       apply_no_weight="true"
       apply_with_weight="true"
       only_selected="false" /><inkscape:path-effect
       effect="bspline"
       id="path-effect13106"
       is_visible="true"
       lpeversion="1"
       weight="33.333333"
       steps="2"
       helper_size="0"
       apply_no_weight="true"
       apply_with_weight="true"
       only_selected="false" /><inkscape:path-effect
       effect="bspline"
       id="path-effect13094"
       is_visible="true"
       lpeversion="1"
       weight="33.333333"
       steps="2"
       helper_size="0"
       apply_no_weight="true"
       apply_with_weight="true"
       only_selected="false" /><inkscape:path-effect
       effect="bspline"
       id="path-effect13064"
       is_visible="true"
       lpeversion="1"
       weight="33.333333"
       steps="2"
       helper_size="0"
       apply_no_weight="true"
       apply_with_weight="true"
       only_selected="false" /><inkscape:path-effect
       effect="bspline"
       id="path-effect13060"
       is_visible="true"
       lpeversion="1"
       weight="33.333333"
       steps="2"
       helper_size="0"
       apply_no_weight="true"
       apply_with_weight="true"
       only_selected="false" /><inkscape:path-effect
       effect="bspline"
       id="path-effect4749"
       is_visible="true"
       lpeversion="1"
       weight="33.333333"
       steps="2"
       helper_size="0"
       apply_no_weight="true"
       apply_with_weight="true"
       only_selected="false" /><inkscape:path-effect
       effect="bspline"
       id="path-effect4741"
       is_visible="true"
       lpeversion="1"
       weight="33.333333"
       steps="2"
       helper_size="0"
       apply_no_weight="true"
       apply_with_weight="true"
       only_selected="false" /><inkscape:path-effect
       effect="bspline"
       id="path-effect2572"
       is_visible="true"
       lpeversion="1"
       weight="33.333333"
       steps="2"
       helper_size="0"
       apply_no_weight="true"
       apply_with_weight="true"
       only_selected="false" /><inkscape:perspective
       sodipodi:type="inkscape:persp3d"
       inkscape:vp_x="0 : -65.000003 : 1"
       inkscape:vp_y="0 : 999.99998 : 0"
       inkscape:vp_z="50.000002 : -65.000003 : 1"
       inkscape:persp3d-origin="25 : -73.333333 : 1"
       id="perspective4160" /><inkscape:path-effect
       effect="bspline"
       id="path-effect4097"
       is_visible="true"
       lpeversion="1"
       weight="33.333333"
       steps="2"
       helper_size="0"
       apply_no_weight="true"
       apply_with_weight="true"
       only_selected="false" /><inkscape:path-effect
       effect="bspline"
       id="path-effect3941"
       is_visible="true"
       lpeversion="1"
       weight="33.333333"
       steps="2"
       helper_size="0"
       apply_no_weight="true"
       apply_with_weight="true"
       only_selected="false" /><inkscape:path-effect
       effect="bspline"
       id="path-effect357"
       is_visible="true"
       lpeversion="1"
       weight="33.333333"
       steps="2"
       helper_size="0"
       apply_no_weight="true"
       apply_with_weight="true"
       only_selected="false" /><inkscape:perspective
       sodipodi:type="inkscape:persp3d"
       inkscape:vp_x="0 : -65.000003 : 1"
       inkscape:vp_y="0 : 999.99998 : 0"
       inkscape:vp_z="50.000002 : -65.000003 : 1"
       inkscape:persp3d-origin="25 : -73.333333 : 1"
       id="perspective4160-9" /><inkscape:path-effect
       effect="bspline"
       id="path-effect4097-5"
       is_visible="true"
       lpeversion="1"
       weight="33.333333"
       steps="2"
       helper_size="0"
       apply_no_weight="true"
       apply_with_weight="true"
       only_selected="false" /><inkscape:path-effect
       effect="bspline"
       id="path-effect3941-2"
       is_visible="true"
       lpeversion="1"
       weight="33.333333"
       steps="2"
       helper_size="0"
       apply_no_weight="true"
       apply_with_weight="true"
       only_selected="false" /><inkscape:path-effect
       effect="bspline"
       id="path-effect357-8"
       is_visible="true"
       lpeversion="1"
       weight="33.333333"
       steps="2"
       helper_size="0"
       apply_no_weight="true"
       apply_with_weight="true"
       only_selected="false" /><clipPath
       clipPathUnits="userSpaceOnUse"
       id="clipPath1200"><path
         id="path1202"
         style="fill:#ff0000;fill-opacity:1;fill-rule:nonzero;stroke:none;stroke-width:0.264583"
         d="m 74.904989,272.73271 v 31.6234 c 3.259751,0 6.519484,-0.003 9.779249,-0.004 1.70602,0.15251 3.416302,0.26271 5.118033,0.45734 1.573393,0.17994 3.131791,0.47643 4.704104,0.66558 3.98353,0.47924 7.965455,0.75436 11.974465,0.64492 2.42553,-0.0877 4.85057,-0.18462 7.27759,-0.2196 0.37393,-0.006 0.74905,-0.035 1.1219,-0.006 0.70115,0.0541 1.3922,0.21696 2.09444,0.25424 0.42657,0.0228 -0.8426,-0.14031 -1.264,-0.21032 3.68884,0.0565 7.37808,0.0172 11.06702,0 1.46178,-0.0151 2.92346,0.003 4.38526,-0.009 l 0.001,1.78334 c 1.87182,-0.0649 3.74418,-0.12361 5.60947,-0.2868 l 0.92553,10.18182 h 80.64363 v -44.87478 z" /></clipPath><clipPath
       clipPathUnits="userSpaceOnUse"
       id="clipPath1256"><path
         id="path1258"
         style="fill:#ff0000;fill-opacity:1;fill-rule:nonzero;stroke:none;stroke-width:0.264583"
         d="m 317.75942,98.319063 v 16.155607 h 90.42392 c 0,-0.18453 -0.003,-0.37973 -0.004,-1.13947 -0.0119,-1.89909 0.0156,-3.79771 -0.003,-5.69681 -0.0222,-3.10585 0.0921,-6.2129 0.062,-9.319327 z" /></clipPath><clipPath
       clipPathUnits="userSpaceOnUse"
       id="clipPath1312"><path
         id="path1314"
         style="fill:#ff0000;fill-opacity:1;fill-rule:nonzero;stroke:none;stroke-width:0.264583"
         d="m 219.67445,234.73916 v 28.79256 h 198.45971 v -1.11001 l -7.50858,0.0186 c -0.005,-0.7379 -0.004,-1.47589 -0.003,-2.21382 0.008,-0.38183 0.009,-0.68085 0.014,-0.95343 -0.54467,-0.8472 -1.11919,-1.67942 -1.53064,-2.59622 -0.0806,-0.1797 -0.14256,-0.36801 -0.19328,-0.55501 l -0.34314,-0.0207 c 0.0525,-0.75909 0.0236,-0.39893 0.0842,-1.0821 0.003,-0.0174 0.003,-0.0211 0.004,-0.0372 -0.50136,-0.79221 -0.48705,-0.65065 -0.49041,-2.23914 0,-1.03736 0.0175,-2.0746 0.003,-3.11195 -0.0334,-3.32057 0.21227,-6.64685 0.0584,-9.9689 h 2.5926 c -0.0135,-0.0678 -0.0262,-0.12571 -0.0398,-0.19482 l 7.3515,-2.00505 v -2.72283 z m 189.23806,21.38267 0.41754,0.0248 c -0.24889,-0.46849 -0.44085,-0.7915 -0.59428,-1.03818 0.0254,0.27563 0.0756,0.64043 0.17674,1.01336 z m 0.41754,0.0248 c 0.33232,0.6255 0.76126,1.50449 1.31154,2.76365 0.003,-0.23241 0.01,-0.4202 0.0114,-0.76585 0.003,-0.50915 -0.006,-1.01841 -0.003,-1.52755 0,-0.0715 -0.003,-0.28425 0.014,-0.21445 0.0773,0.34522 0.20643,1.39963 0.17262,1.04748 -0.0394,-0.40948 -0.10147,-0.81629 -0.1628,-1.22318 z" /></clipPath><clipPath
       clipPathUnits="userSpaceOnUse"
       id="clipPath1334"><path
         id="path1336"
         style="fill:#ff0000;fill-opacity:1;fill-rule:nonzero;stroke:none;stroke-width:0.264583"
         d="M 122.16154,-11.224638 V 37.67677 H 277.43629 V -4.2834594 c -0.58857,0.00499 -1.20277,-0.060446 -1.7699,0.00723 -2.48836,0.2969577 -5.02648,0.7683079 -7.54166,0.7653279 -0.68376,-8.202e-4 -1.3657,-0.073039 -2.04846,-0.1095542 -4.82567,-0.2069994 -9.67513,-0.3197645 -14.50196,-0.065112 -0.42034,-6.88e-4 -0.8431,0.043362 -1.26091,-0.00259 -4.00588,-0.4405159 -7.91729,-1.3529476 -11.84268,-2.2272543 l 0.74465,-3.0659625 c -2.50233,-0.06693 -5.0048,-0.1375003 -7.50858,-0.1663983 -5.57331,-0.025546 -11.14275,0.1548212 -16.71578,0.1178224 -3.9312,-0.00951 -7.87686,-0.3112892 -11.77964,-0.7896159 -5.80186,-0.7110717 -0.8401,-0.2369367 -5.51698,-0.6475047 -1.72669,-0.236755 -2.57778,-0.282686 -4.02042,-0.757577 z m 150.76598,2.7631389 c 1.32324,2.8822235 2.7255,4.9986742 4.50877,3.4349325 v -3.0272053 c -0.64265,-0.055733 -1.28564,-0.1110507 -1.92805,-0.1669148 -0.86061,-0.074844 -1.72069,-0.1585574 -2.58072,-0.2408124 z" /></clipPath><clipPath
       clipPathUnits="userSpaceOnUse"
       id="clipPath1446"><path
         id="path1448"
         style="fill:#ff0000;fill-opacity:1;fill-rule:nonzero;stroke:none;stroke-width:0.264583"
         d="m -4.0969076,-0.22117513 c -0.016663,1.03926555 -0.01624,2.07878433 -0.01292,3.11815603 0.01152,1.5473894 0.00498,3.0941459 0.0062,4.6415769 0.00551,1.6980376 -0.00811,3.3961732 0.00982,5.0942632 -0.017632,0.880997 -0.096414,1.756156 0.040308,2.634981 0.1013913,2.316598 -0.014615,4.542958 -0.5885947,6.798035 H 131.18114 V -0.22117513 Z" /></clipPath><clipPath
       clipPathUnits="userSpaceOnUse"
       id="clipPath1806"><path
         id="path1808"
         style="fill:#ff0000;fill-opacity:1;fill-rule:nonzero;stroke:none;stroke-width:0.264583"
         d="M 258.29845,6.7370566 V 31.424954 h 149.36917 c 0.009,-0.185134 0.0185,-0.370459 0.0294,-0.555519 0.0156,-0.260683 0.0394,-0.520957 0.0656,-0.780833 -0.0209,-0.213426 -0.0375,-0.427075 -0.0119,-0.63872 0.0274,-0.226563 0.0559,-0.429138 0.0842,-0.620117 -0.0725,-1.468144 -0.0167,-2.924706 0.27802,-4.313949 -1.5e-4,-0.12902 0,-0.258038 0,-0.387056 0,-0.285987 0.006,-0.571932 0,-0.857829 -0.009,-0.11517 -0.0159,-0.181266 -0.014,-0.309542 0.005,-0.301623 0.0886,-0.596447 0.0946,-0.898136 0.0156,-0.07949 0.0439,-0.238062 0.0687,-0.325562 0.003,-0.01115 0.013,-0.01962 0.0151,-0.03101 0.0496,-0.257384 0.0465,-0.524838 0.13126,-0.775663 0.004,0.03237 0.006,0.129144 0.0119,0.09715 0.01,-0.05262 0,-0.107074 0,-0.160714 0,-0.132592 0.003,-0.265527 -0.007,-0.397908 -0.006,-0.210276 1.3e-4,-0.415882 0.0164,-0.625802 0.006,-0.07321 0.0114,-0.146388 0.0217,-0.219108 0.003,-0.01056 0.0132,-0.01828 0.0135,-0.02894 0.003,-0.06654 -0.005,-0.132961 -0.008,-0.199471 0.005,-0.211826 0,-0.208873 0.0243,-0.403593 0.0236,-0.183155 0.0339,-0.135302 0.0429,-0.364319 0.004,-0.102313 0,-0.204574 0,-0.306958 V 18.09657 c 0,-0.388148 -1.1e-4,-0.776131 -0.003,-1.16427 0,-0.326373 0.005,-0.6529 0,-0.979269 -0.003,-0.227888 1.6e-4,-0.455288 0.005,-0.683162 3e-5,-0.03 -0.009,-0.06124 0,-0.08992 0,-0.0035 0.003,-0.002 0.004,0.0016 -0.007,-0.04206 -0.0145,-0.08413 -0.018,-0.126607 -0.0185,-0.222904 -0.005,-0.448569 0.0532,-0.665076 0.0317,-0.08335 0.0276,-0.08758 0.03,-0.135909 -0.0185,-0.03884 -0.0352,-0.07812 -0.047,-0.119372 -0.0764,-0.267257 -0.0969,-0.46894 -0.0677,-0.729155 0,0.05569 0.009,0.100629 0.0305,0.153479 0.0193,0.04722 0.0738,0.18894 0.0636,0.13901 -0.0397,-0.195099 -0.10163,-0.385231 -0.15243,-0.577743 0.01,-0.295156 -0.0552,-0.594477 0.0265,-0.88625 0.007,-0.03056 -0.007,-0.106138 0.0206,-0.09147 0.004,0.0021 0.007,0.0054 0.009,0.01033 -0.003,-0.239647 -0.0684,-0.481012 0.004,-0.71882 0.005,-0.01294 0.009,-0.02583 0.014,-0.03876 -0.0649,-0.10248 -0.12427,-0.19209 -0.0274,-0.135909 l 0.092,-0.04599 c 0.008,-0.02395 0.0175,-0.04785 0.0259,-0.07183 0.003,-0.0089 0.003,-0.01795 0.005,-0.02687 0.004,-0.0217 0.0325,-0.08187 0.0254,-0.06098 -0.0101,0.02939 -0.0201,0.05854 -0.0305,0.08785 -0.004,0.02162 -0.008,0.04347 -0.0124,0.06511 l 0.20154,-0.100769 c 0.003,-0.02588 0.005,-0.01664 0.007,-0.07596 0.004,-0.115395 0,-0.963655 0,-1.0355963 h 0.60669 c 0.003,-0.3938085 0.007,-0.7875527 0.006,-1.1813231 l 3.50004,0.017052 V 6.7370656 Z M 408.5363,11.460282 c 0,0.0099 -0.003,0.01957 -0.003,0.02946 -0.003,0.04095 -0.009,0.123356 0.032,0.118856 0.0457,-0.0051 0.0148,-0.07251 -0.03,-0.148312 z" /></clipPath><clipPath
       clipPathUnits="userSpaceOnUse"
       id="clipPath1830"><path
         id="path1832"
         style="fill:#ff0000;fill-opacity:1;fill-rule:nonzero;stroke:none;stroke-width:0.264583"
         d="m -4.6271077,-4.0488484 v 3.73413893 h 0.5312336 c -0.018264,1.07041117 -0.017373,2.14115187 -0.013952,3.21169037 0.01152,1.5473812 0.00498,3.0941539 0.0062,4.6415769 0.00551,1.6980297 -0.00811,3.3961782 0.00982,5.0942632 -0.017632,0.880992 -0.096415,1.756161 0.040308,2.634981 0.1004851,2.295893 -0.012867,4.503152 -0.5736084,6.737573 v 38.037989 c 0.4570296,1.209038 0.6014243,2.634655 0,3.236495 V 195.12866 c 0.1539676,0.40318 0.1442611,0.50198 0.1426268,0.83406 -0.00344,0.328 -0.016793,0.65677 -0.00259,0.98443 0.041863,0.40412 0.034976,0.66839 -0.058395,1.06712 -0.011967,0.0511 -0.012234,0.10978 -0.045475,0.15038 -0.021116,0.0258 0.01692,-0.0981 -0.027389,-0.0961 0.023791,0.36715 0.040835,0.42927 0.00362,0.82217 -0.00309,0.0326 -0.00751,0.0652 -0.012401,0.0977 V 305.09713 H 61.14252 v -0.77566 c 7.847089,0.053 15.694515,0.0319 23.541718,0.031 1.705993,0.15251 3.416302,0.26273 5.118033,0.45734 0.692905,0.0792 1.382671,0.182 2.072225,0.28731 H 408.33889 V 254.4625 c -0.17481,-0.33643 -0.16917,-0.59325 -0.17155,-1.71979 0,-1.03736 0.0177,-2.0746 0.003,-3.11195 -0.0334,-3.32057 0.21228,-6.64693 0.0584,-9.9689 H 408.34 V 115.64359 h -0.16017 c 0.008,-1.43515 0.007,-0.66555 0,-2.30839 -0.0119,-1.89909 0.0156,-3.79771 -0.003,-5.69681 -0.0259,-3.63774 0.13584,-7.27694 0.0331,-10.915095 h 0.12972 V 41.641387 l -0.42995,0.06615 c -0.28707,-3.603154 -0.42796,-7.226745 -0.2124,-10.838098 0.0156,-0.260683 0.0394,-0.520957 0.0656,-0.780833 -0.0209,-0.213426 -0.0375,-0.427075 -0.0119,-0.63872 0.0296,-0.244761 0.0602,-0.463108 0.0909,-0.666626 -0.0675,-1.418476 -0.003,-2.820092 0.2713,-4.16512 0,-0.163127 -0.003,-0.326252 0,-0.489376 0,-0.285987 0.006,-0.571932 0,-0.857829 -0.009,-0.11517 -0.0159,-0.181266 -0.014,-0.309542 0.005,-0.301623 0.0886,-0.596447 0.0946,-0.898136 0.0156,-0.07949 0.0439,-0.238062 0.0687,-0.325562 0.003,-0.01115 0.013,-0.01962 0.0151,-0.03101 0.0298,-0.154735 0.0409,-0.313009 0.063,-0.469222 V -4.0488484 H 273.92696 c -1.92537,0.2633345 -3.87003,0.5402398 -5.8012,0.5379517 -0.68376,-8.203e-4 -1.3657,-0.073039 -2.04846,-0.1095542 -4.82567,-0.2069976 -9.67519,-0.3197646 -14.50196,-0.065112 -0.42034,-6.879e-4 -0.84309,0.043404 -1.2609,-0.00259 -0.89402,-0.098313 -1.78334,-0.2210498 -2.66909,-0.3607014 z" /></clipPath><clipPath
       clipPathUnits="userSpaceOnUse"
       id="clipPath1840"><path
         id="path1842"
         style="fill:#ff0000;fill-opacity:1;fill-rule:nonzero;stroke:none;stroke-width:0.264583"
         d="m -8.1607422,177.55712 c 0.014909,1.5809 0.034053,3.16153 0.055294,4.74235 h 1.8055746 c -0.00322,0.24319 -0.00106,0.48648 -0.00156,0.72967 l 1.0697022,-0.1633 c 0.025662,0.17733 0.051335,0.35494 0.076998,0.53227 0.03909,0.3543 0.1332328,1.18006 0.1519288,1.48983 0.010599,0.17555 4.762e-4,0.35175 0.00156,0.52762 0.0031,0.50992 0.0147,1.01967 0.01602,1.52962 2.7e-5,0.57095 0.00586,1.07547 -0.017571,1.64589 -0.011293,0.27494 -0.055246,0.54819 -0.064596,0.82321 -0.00529,0.15556 0.00116,0.31099 0.00156,0.46664 3.968e-4,0.15807 3.175e-4,0.31632 5.291e-4,0.47439 -0.00554,0.67043 -0.045283,1.34444 0.017571,2.01279 0.011856,0.14629 0.027817,0.29219 0.035657,0.43874 0.020016,0.37409 -0.028856,0.0128 0.0093,0.39532 0.047521,0.47641 0.057211,0.21529 0.082166,0.85008 0.00323,0.082 -0.00778,0.16394 -0.011885,0.24598 0.00882,0.0432 0.017425,0.0865 0.02222,0.13022 9.525e-4,0.009 -0.015325,0.0137 -0.013436,0.0227 0.015314,0.0702 0.042347,0.13697 0.063562,0.20567 0.00925,0.0317 0.054795,0.1148 0.027905,0.0956 -0.00616,-0.004 -0.012166,-0.009 -0.017571,-0.0145 0.072885,0.0965 0.1454679,0.19298 0.1896526,0.30438 0.1909243,0.48136 0.1774496,0.56479 0.1756997,0.92036 -0.00344,0.328 -0.016793,0.65677 -0.00259,0.98443 0.041863,0.40412 0.034976,0.66839 -0.058395,1.06712 -0.011967,0.0511 -0.012234,0.10978 -0.045475,0.15038 -0.021116,0.0258 0.01692,-0.0981 -0.027389,-0.0961 0.023791,0.36715 0.040835,0.42927 0.00362,0.82217 -0.010327,0.10903 -0.032526,0.21666 -0.054261,0.32401 -0.1137438,0.56178 -0.2857386,1.10902 -0.4852416,1.6459 l -1.8350301,-0.61133 -0.7281209,-0.0558 c 0.00663,0.28041 0.01351,0.56086 0.020153,0.84129 H 70.096496 v -23.47764 z m 3.2101401,16.61087 c -0.00114,0.004 -0.00246,0.0193 -0.00156,0.0253 0.0023,0.0151 0.00544,0.03 0.00827,0.045 -0.00143,-0.021 -0.00238,-0.0422 -0.00568,-0.0692 -2.477e-4,-0.002 -6.615e-4,-0.002 -0.00103,-0.001 z m -0.01602,0.4067 c 0.021696,0.0339 0.045183,0.0666 0.069246,0.0992 -0.015767,-0.0265 -0.030345,-0.0539 -0.048576,-0.078 -0.0059,-0.008 -0.02595,-0.0292 -0.020672,-0.0212 z" /></clipPath><clipPath
       clipPathUnits="userSpaceOnUse"
       id="clipPath1896"><path
         id="path1898"
         style="fill:#ff0000;fill-opacity:1;fill-rule:nonzero;stroke:none;stroke-width:0.264583"
         d="m -5.3469603,67.874409 c 0.00262,0.627325 0.091409,1.295548 0.033073,1.885675 l 0.2335773,0.01447 c -0.072338,1.219374 -0.096742,2.441501 -0.078548,3.662825 0.00308,0.206635 0.012568,0.413129 0.021188,0.619601 0.00423,0.101164 0.02427,0.202311 0.017571,0.30334 -0.017272,0.260284 -0.05918,0.518057 -0.088884,0.777216 -0.00495,0.02901 -0.01088,0.05789 -0.016536,0.08682 0.036655,0.658524 0.036396,1.320208 -0.0093,1.985407 0.00531,0.270936 0.011065,0.541869 0.01447,0.812872 0.00375,0.703122 -0.037695,1.403884 -0.097668,2.103747 0.00233,0.02537 0.00552,0.05168 0.00775,0.077 0.2140524,0.965806 0.3476384,1.999797 0.4826579,3.09645 0.1094979,0.889363 -0.088279,1.952834 -0.1209227,2.864943 0.018013,0.568473 0.024675,1.137094 0.027905,1.705837 H 68.514682 v -19.9962 z" /></clipPath></defs><g
     inkscape:groupmode="layer"
     id="layer3"
     inkscape:label="BaseWaterColor"
     transform="matrix(0.71962058,0,0,0.66549755,3.3297342,4.7187331)"><rect
       style="fill:#c7e5fc;fill-opacity:1;stroke-width:0.264583;paint-order:stroke markers fill"
       id="rect1212"
       width="412.96591"
       height="309.14606"
       x="-4.627069"
       y="-4.0486856"
       ry="0.14459591"
       clip-path="url(#clipPath1830)" /><rect
       style="fill:#c7e5fc;fill-opacity:1;stroke-width:0.264583;paint-order:stroke markers fill"
       id="rect14351"
       width="412.96591"
       height="309.14606"
       x="-4.627069"
       y="-4.0486856"
       ry="0.14459591"
       clip-path="url(#clipPath1830)"
       transform="matrix(1,0,0,1.0253016,0,-2.9394101)" /></g><g
     inkscape:groupmode="layer"
     id="layer2"
     inkscape:label="SpelPlan"
     style="display:none"><rect
       style="fill:#f3a48f;fill-opacity:1;stroke-width:0.264583;paint-order:stroke markers fill"
       id="rect791"
       width="235.11295"
       height="179.58813"
       x="76.346642"
       y="56.10321"
       ry="1.7351509" /><g
       id="g4483"
       transform="translate(248.83347,128.29288)"><g
         inkscape:label="Layer 1"
         id="layer1"
         style="display:inline" /><g
         id="layer2-8"
         inkscape:label="FishBackSide1"><path
           style="fill:#b1b1b1;fill-opacity:1;stroke-width:0.264583;paint-order:stroke markers fill"
           d="m 19.14536,17.62029 c 0.127775,-1.005254 0.127775,-2.845659 -1.15015,-4.294203 -1.277925,-1.448544 -3.833993,-2.505053 -5.095038,-3.016209 -1.261044,-0.5111561 -1.226964,-0.4770757 -1.567946,0.630545 -0.340982,1.107621 -1.056681,3.288798 0.07674,4.805402 1.133426,1.516603 4.115448,2.368609 5.734227,2.709366 1.618779,0.340758 1.874387,0.170353 2.002162,-0.834901 z"
           id="path355"
           inkscape:path-effect="#path-effect357"
           inkscape:original-d="m 19.273135,18.455177 c 2.65e-4,-1.840141 2.65e-4,-3.680546 0,-5.521216 -2.555905,-1.056286 -5.111973,-2.112794 -7.668356,-3.1695876 0.03435,0.034347 0.06843,0.068428 0.102245,0.1022448 -0.715463,2.1815298 -1.431162,4.3627068 -2.1471401,6.5436638 2.9824631,0.852321 5.9644851,1.704327 8.9464161,2.556118 0.255881,-0.170146 0.511488,-0.340551 0.766835,-0.511223 z"
           sodipodi:nodetypes="ccccccc" /></g><g
         id="layer3-0"
         inkscape:label="FishBackSide2"><path
           style="fill:#b1b1b1;fill-opacity:1;stroke-width:0.264583;paint-order:stroke markers fill"
           d="m 18.608544,18.148443 c -2.215303,-0.408979 -4.430258,-0.817894 -5.861892,-0.0936 -1.431634,0.724297 -2.079151,2.581649 -2.317547,3.561541 -0.238395,0.979892 -0.0683,1.081947 0.102104,1.184192 2.010813,0.187449 4.021873,0.37492 5.444639,-0.298171 1.422766,-0.673092 2.257728,-2.206695 2.649729,-3.109775 0.392002,-0.90308 0.340824,-1.176029 0.289702,-1.448682 0,0 -0.306735,0.204492 -0.306735,0.204492 z"
           id="path3939"
           inkscape:path-effect="#path-effect3941"
           inkscape:original-d="m 18.608544,18.148443 c 0,0 -4.430296,-0.817686 -6.645909,-1.226938 -0.647298,1.857749 -1.294816,3.715101 -1.94265,5.572339 0.170678,0.102513 0.511224,0.306735 0.511224,0.306735 0,0 4.021851,0.375158 6.03244,0.562346 0.83528,-1.533437 1.670242,-3.06704 2.504997,-4.601014 -0.05086,-0.272397 -0.153367,-0.81796 -0.153367,-0.81796 z"
           sodipodi:nodetypes="cccccccc" /></g><g
         id="layer4"
         inkscape:label="FishBody"><path
           style="fill:#b1b1b1;fill-opacity:1;stroke-width:0.264583;paint-order:stroke markers fill"
           d="m 19.29027,16.844788 c 1.721044,-1.45697 4.992876,-4.319823 8.298967,-4.651987 3.306091,-0.332164 6.646019,1.866054 8.375639,2.965084 1.72962,1.09903 1.848905,1.09903 0.809242,2.735009 -1.039664,1.635978 -3.237881,4.907743 -6.688511,5.265631 -3.45063,0.357887 -8.153793,-2.19818 -10.420289,-3.501913 -2.266496,-1.303732 -2.096093,-1.354853 -0.375048,-2.811824 z"
           id="path4095"
           inkscape:path-effect="#path-effect4097"
           inkscape:original-d="m 17.739464,18.250687 c 3.272096,-2.862588 6.543928,-5.725441 9.815495,-8.5885583 3.340328,2.1985703 6.680256,4.3967883 10.019985,6.5947863 0.119552,2.65e-4 0.238837,2.65e-4 0.357857,0 -2.198042,3.272162 -4.396258,6.543928 -6.594787,9.815496 -4.703088,-2.555906 -9.406251,-5.111973 -14.109774,-7.668357 0.170676,-0.05086 0.34108,-0.10198 0.511224,-0.153367 z" /></g></g></g><g
     inkscape:groupmode="layer"
     id="layer16"
     inkscape:label="WaterLines"
     style="display:inline"><g
       inkscape:groupmode="layer"
       id="layer5"
       inkscape:label="WaterLine1"
       style="display:inline"><path
         style="fill:#94b8f4;fill-opacity:1;stroke-width:0.130509;paint-order:stroke markers fill"
         d="m 1.5884667,135.41091 c 1.9666289,-2.2353 5.7976602,-4.13855 11.5187893,-3.98358 5.72113,0.15498 13.331958,2.36803 19.972458,3.54094 6.640499,1.17292 12.31031,1.3057 17.188512,0.95158 4.878202,-0.35411 8.964552,-1.19507 10.982254,-1.61554 2.017701,-0.42048 1.9666,-0.42048 1.353569,0 -0.613031,0.42049 -1.787852,1.26144 -5.363507,2.41226 -3.575655,1.15082 -9.551939,2.61143 -15.809331,3.12046 -6.257393,0.50902 -12.795555,0.0664 -17.801462,-0.61963 -5.005908,-0.68605 -8.479306,-1.61553 -12.259343,-1.06228 -3.7800379,0.55326 -7.8663885,2.58926 -9.8585574,2.32373 -1.992169,-0.26553 -1.89001072,-2.83265 0.076618,-5.06794 z"
         id="path2570"
         inkscape:original-d="m -0.2759965,135.0789 c 3.8311703,-1.90313 7.6622002,-3.80639 11.4930905,-5.70977 7.611272,2.21325 15.222099,4.4263 22.832937,6.63927 5.670179,0.13291 11.33999,0.26569 17.009774,0.39835 4.086654,-0.84086 8.173002,-1.68183 12.259296,-2.52292 -0.05092,1.2e-4 -0.102021,1.2e-4 -0.153241,0 -1.174733,0.84112 -2.349557,1.68207 -3.524546,2.52292 -5.976389,1.4608 -11.952675,2.9214 -17.929222,4.38192 -6.538281,-0.44251 -13.076443,-0.88512 -19.614873,-1.32785 -3.473397,-0.9294 -6.946795,-1.85888 -10.420402,-2.78849 -4.0863734,2.0362 -8.1727237,4.0722 -12.25929592,6.10812 0.10230309,-2.56712 0.20446184,-5.13424 0.30648242,-7.70155 z"
         inkscape:path-effect="#path-effect2572" /></g><g
       inkscape:groupmode="layer"
       id="layer8"
       inkscape:label="WaterLine4"><path
         style="display:none;fill:#94b8f4;fill-opacity:1;stroke-width:0.264583;paint-order:stroke markers fill"
         d="m 408.1462,142.57182 c -3.75935,-4.24149 -11.18194,-10.21812 -18.46012,-10.7966 -7.27818,-0.57847 -14.41144,4.2413 -21.4966,6.36206 -7.08515,2.12077 -14.12201,1.54239 -21.44827,-0.86751 -7.32626,-2.4099 -14.94149,-6.65129 -18.07446,-7.47057 -3.13297,-0.81928 -1.78344,1.78339 1.44598,5.1573 3.22942,3.3739 8.33837,7.5189 15.56828,10.21794 7.2299,2.69904 16.58024,3.95218 23.76178,3.18093 7.18154,-0.77125 12.1941,-3.56671 18.94211,-3.3256 6.74801,0.2411 15.23081,3.51855 19.42393,3.90419 4.19313,0.38564 4.09672,-2.12064 0.33737,-6.36214 z"
         id="path13104"
         inkscape:path-effect="#path-effect13106"
         inkscape:original-d="m 411.80914,144.30672 c -7.42231,-5.97637 -14.8449,-11.953 -22.26776,-17.92989 -7.13327,4.82022 -14.26654,9.63999 -21.40019,14.45959 -7.03688,-0.57814 -14.07374,-1.15651 -21.11102,-1.73516 -7.61527,-4.2413 -15.2305,-8.48269 -22.84614,-12.72443 1.34985,2.60304 2.69939,5.20571 4.04868,7.80817 5.10942,4.14543 10.21837,8.29043 15.32716,12.43525 9.35101,1.25345 18.70135,2.5066 28.05162,3.7595 5.01301,-2.79532 10.02557,-5.59078 15.03797,-8.38657 8.48339,3.27784 16.96619,6.55528 25.44889,9.83252 -0.0961,-2.50611 -0.19253,-5.01239 -0.28921,-7.51898 z" /></g><g
       inkscape:groupmode="layer"
       id="layer6"
       inkscape:label="WaterLine2"
       style="display:inline"><path
         style="display:inline;fill:#92b7f4;fill-opacity:1;stroke-width:0.264583;paint-order:stroke markers fill"
         d="m 411.56824,14.556094 c -0.62667,2.79568 -0.62667,8.001132 -0.67484,10.362884 -0.0482,2.361751 -0.14456,1.879767 -6.84424,3.229186 -6.69968,1.34942 -20.00224,4.530466 -33.49793,2.747153 -13.49569,-1.783314 -27.18382,-8.530984 -40.82421,-11.567581 -13.64039,-3.036596 -27.23214,-2.361828 -39.57115,0.240919 -12.33901,2.602747 -23.42449,7.133335 -28.43723,8.434753 -5.01273,1.301417 -3.95238,-0.626489 -0.43377,-3.663111 3.51862,-3.036623 9.49514,-7.181628 17.83366,-10.700158 8.33853,-3.518531 19.03841,-6.4103918 30.60626,-6.8441111 11.56786,-0.4337193 24.00287,1.5905858 35.47426,3.6631551 11.47138,2.072569 21.97846,4.193265 31.95564,4.626993 9.97717,0.433729 19.42391,-0.819409 25.59335,-1.783397 6.16945,-0.963987 9.06129,-1.638751 9.88065,-1.78335 0.81936,-0.144599 -0.43379,0.240986 -1.06045,3.036665 z"
         id="path4739"
         inkscape:path-effect="#path-effect4741"
         inkscape:original-d="m 410.94157,12.146056 c 2.6e-4,5.205718 2.6e-4,10.41117 0,15.616358 -0.0961,-0.481732 -0.19254,-0.963708 -0.28919,-1.445959 -13.30283,3.181438 -26.60539,6.362486 -39.90848,9.543331 -13.68841,-6.74768 -27.37654,-13.495354 -41.06524,-20.243428 -13.59202,0.675059 -27.18377,1.349827 -40.77605,2.024343 -11.08562,4.531027 -22.1711,9.061607 -33.25704,13.592014 1.06065,-1.927719 2.121,-3.855624 3.18111,-5.783835 5.97702,-4.144901 11.95354,-8.289901 17.92989,-12.435248 10.70057,-2.891712 21.40045,-5.7835721 32.10028,-8.6757547 12.43576,2.0246477 24.87078,4.0489499 37.30575,6.0730277 10.50779,2.121047 21.01487,4.241745 31.5219,6.36222 9.4474,-1.252925 18.89414,-2.506064 28.34082,-3.759493 2.89224,-0.67453 5.78408,-1.349298 8.67574,-2.024343 -1.25291,0.385861 -2.50606,0.771443 -3.75949,1.156767 z"
         clip-path="url(#clipPath1806)"
         transform="matrix(0.77926772,0,0,0.37916274,-21.356177,7.0745335)" /></g><g
       inkscape:groupmode="layer"
       id="layer7"
       inkscape:label="WaterLine3"
       style="display:inline"><path
         style="display:inline;fill:#94b8f4;fill-opacity:1;stroke-width:0.264583;paint-order:stroke markers fill"
         d="m -10.603633,21.062903 c -1.060448,-1.783196 -0.867654,-6.217471 -0.674873,-8.868433 0.19278,-2.6509614 0.385571,-3.5185193 6.458816,-6.0732144 C 1.2535552,3.5665604 13.206578,-0.67483481 23.135652,-0.09626634 33.064727,0.48230214 40.969143,5.8804404 51.910352,8.4348591 62.85156,10.989278 76.828884,10.700092 89.1196,8.9648859 101.41032,7.22968 112.0138,4.048633 118.66527,2.313493 125.31674,0.57835303 128.01581,0.28916693 129.70272,-4.3055152e-5 131.38962,-0.28925304 132.06439,-0.57844034 129.36518,1.1085529 c -2.69921,1.6869933 -8.77212,5.3500187 -19.08672,9.2059481 -10.314602,3.85593 -24.870299,7.904534 -38.99257,8.241954 -14.122271,0.337419 -27.81041,-3.036418 -38.848023,-4.193227 -11.037613,-1.15681 -19.424008,-0.09646 -25.2079518,1.397708 -5.7839436,1.494168 -8.9649899,3.422075 -11.7123008,4.81984 -2.747311,1.397765 -5.0607994,2.265323 -6.1212474,0.482127 z"
         id="path4747"
         inkscape:original-d="m -11.856865,23.713729 c 0.19306,-4.43401 0.385854,-8.868285 0.578384,-13.302824 0.193063,-0.8673279 0.385854,-1.7348858 0.578384,-2.602726 11.9537652,-4.2413002 23.906788,-8.48269533 35.859785,-12.72444 7.905,5.39861991 15.809416,10.7967591 23.713729,16.194742 C 62.851566,10.989548 76.82889,10.700362 90.806232,10.410905 101.41041,7.2299964 112.0139,4.0489499 122.61733,0.86757546 125.31677,0.57864245 128.01584,0.28945641 130.7147,0 c 0.67506,-0.28893301 1.34983,-0.57811905 2.02434,-0.86757546 C 126.66616,2.7958587 120.59325,6.4588818 114.51996,10.121714 99.963945,14.170744 85.408248,18.219349 70.851995,22.26777 57.163572,18.894063 43.475433,15.520226 29.786757,12.146056 c -8.386466,1.060656 -16.772861,2.121005 -25.159688,3.18111 -3.180909,1.928249 -6.3619553,3.856156 -9.54333,5.783837 -2.313316,0.867857 -4.6268044,1.735415 -6.940604,2.602726 z"
         inkscape:path-effect="#path-effect4749"
         clip-path="url(#clipPath1446)"
         transform="matrix(0.4911265,0,0,0.67560499,1.9756385,5.1337047)" /></g><g
       inkscape:groupmode="layer"
       id="layer9"
       inkscape:label="WaterLine5"><path
         style="display:inline;fill:#94b8f4;fill-opacity:1;stroke-width:0.264583;paint-order:stroke markers fill"
         d="m 409.64039,244.46369 c -9.2058,-5.39834 -26.94291,-11.56778 -46.99387,-9.20601 -20.05096,2.36176 -42.41467,13.25443 -66.17675,16.24276 -23.76208,2.98832 -48.92127,-1.92784 -62.22412,-4.43419 -13.30285,-2.50635 -14.74878,-2.60274 -14.55597,-1.87964 0.19282,0.7231 2.02433,2.26542 7.76008,4.77173 5.73576,2.5063 15.37528,5.97653 26.55748,8.62744 11.1822,2.6509 23.90638,4.48241 34.55834,4.86795 10.65196,0.38554 19.23113,-0.6748 26.84652,-2.79558 7.61539,-2.12078 14.26668,-5.30183 22.31598,-8.04917 8.04931,-2.74735 17.49605,-5.06083 28.19634,-5.10896 10.70028,-0.0481 22.65328,2.16897 31.9075,4.48256 9.25422,2.31359 15.80908,4.72347 18.74906,3.61495 2.93998,-1.10853 2.26521,-5.7355 -6.94059,-11.13384 z"
         id="path13131"
         inkscape:path-effect="#path-effect13133"
         inkscape:original-d="m 418.17136,245.23466 c -17.73682,-6.16916 -35.47393,-12.33859 -53.21128,-18.50828 -22.36436,10.89338 -44.72808,21.78605 -67.09251,32.67868 -25.15992,-4.91609 -50.31911,-9.83226 -75.47906,-14.74878 -1.44573,-0.0961 -2.89166,-0.19253 -4.33788,-0.28919 1.83185,1.54265 3.66336,3.08497 5.49465,4.62706 9.64018,3.47064 19.27971,6.94087 28.91918,10.41091 12.72495,1.83185 25.44913,3.66336 38.17332,5.49463 8.5798,-1.06011 17.15897,-2.12046 25.73808,-3.1811 6.65178,-3.1809 13.30307,-6.36195 19.95421,-9.54333 9.4474,-2.31331 18.89414,-4.6268 28.34082,-6.9406 11.95377,2.21745 23.90677,4.43454 35.85977,6.65141 6.55543,2.41025 13.11029,4.82013 19.66505,7.2298 -0.67453,-4.6269 -1.34929,-9.25387 -2.02435,-13.88121 z"
         clip-path="url(#clipPath1312)"
         transform="matrix(0.57450265,0,0,0.38731374,63.394949,96.972473)" /></g><g
       inkscape:groupmode="layer"
       id="layer10"
       inkscape:label="WaterLine6"><path
         style="display:inline;fill:#94b8f4;fill-opacity:1;stroke-width:0.264583;paint-order:stroke markers fill"
         d="m -13.254603,191.73422 c 6.121306,-4.72357 16.9177991,-10.31461 28.437502,-11.47127 11.519703,-1.15667 23.761912,2.12077 33.160606,2.07247 9.398694,-0.0483 15.953577,-3.42214 19.231033,-4.43413 3.277457,-1.012 3.277457,0.33753 0.481936,2.36174 -2.795521,2.02421 -8.38645,4.72328 -13.495494,6.36205 -5.109043,1.63878 -9.73602,2.21715 -14.459517,2.50635 -4.723497,0.28921 -9.543263,0.28921 -14.700569,0.24101 -5.157307,-0.0482 -10.651842,-0.14459 -15.375444,1.01218 -4.7236025,1.15676 -8.6758153,3.56665 -13.9295009,6.073 -5.2536856,2.50634 -11.8085671,5.10902 -14.3631771,4.4825 -2.554609,-0.62652 -1.10868,-4.48233 5.012625,-9.2059 z"
         id="path13222"
         inkscape:original-d="m -17.929893,192.60175 c 10.7967595,-5.59078 21.593254,-11.18182 32.389484,-16.77313 12.242963,3.27784 24.485173,6.55528 36.727361,9.83253 6.55541,-3.37371 13.110292,-6.74755 19.665043,-10.12172 2.64e-4,1.34986 2.64e-4,2.69939 0,4.04869 -5.590889,2.69944 -11.181818,5.39851 -16.773126,8.09737 -4.626895,0.57866 -9.253873,1.15703 -13.881205,1.73515 -4.819698,2.7e-4 -9.639464,2.7e-4 -14.459592,0 -5.49449,-0.0961 -10.989025,-0.19253 -16.4839337,-0.28919 -3.9521027,2.41024 -7.9043119,4.82013 -11.8568647,7.22979 -6.554881,2.60305 -13.1097646,5.20572 -19.6650436,7.80818 1.446253,-3.8557 2.892183,-7.71151 4.337877,-11.56767 z"
         inkscape:path-effect="#path-effect13224"
         clip-path="url(#clipPath1840)"
         transform="matrix(0.89652875,0,0,0.63046357,4.6502424,63.011117)" /></g><g
       inkscape:groupmode="layer"
       id="layer11"
       inkscape:label="WaterLine7"><path
         style="display:inline;fill:#94b8f4;fill-opacity:1;stroke-width:0.264583;paint-order:stroke markers fill"
         d="m 416.9185,105.4105 c -8.48294,-2.74726 -19.66502,-7.663524 -30.94372,-7.036978 -11.27871,0.626547 -22.65336,6.795848 -33.98006,9.254008 -11.32669,2.45816 -22.60495,1.20503 -28.62984,0.6748 -6.02488,-0.53022 -6.79606,-0.33743 -4.19321,0.57843 2.60285,0.91585 8.57937,2.55457 13.83306,3.71132 5.25368,1.15676 9.78428,1.83153 15.18256,1.87968 5.39827,0.0482 11.66397,-0.53021 16.8694,-1.87981 5.20543,-1.3496 9.35042,-3.47029 13.83301,-4.67524 4.48258,-1.20495 9.30236,-1.49413 16.82149,0.0483 7.51912,1.54245 17.73704,4.91629 25.06316,5.44638 7.32612,0.53008 11.76031,-1.78341 11.08557,-3.22933 -0.67474,-1.44593 -6.45848,-2.0243 -14.94142,-4.77157 z"
         id="path13178"
         inkscape:path-effect="#path-effect13180"
         inkscape:original-d="m 419.61733,107.57936 c -11.18182,-4.916 -22.3639,-9.832261 -33.54625,-14.748788 -11.37484,6.169813 -22.74948,12.339118 -34.12464,18.508278 -11.27844,-1.25293 -22.5567,-2.50606 -33.83544,-3.75949 -0.77092,0.19306 -1.5421,0.38585 -2.31354,0.57838 5.97701,1.63905 11.95353,3.27777 17.92991,4.91626 4.53101,0.67506 9.06161,1.34983 13.59201,2.02434 6.26621,-0.57813 12.53191,-1.1565 18.79746,-1.73515 4.14544,-2.12052 8.29043,-4.24121 12.43526,-6.36222 4.8202,-0.28893 9.63998,-0.57812 14.45958,-0.86757 10.21858,3.37423 20.4365,6.74807 30.65434,10.12171 4.43462,-2.31331 8.8688,-4.62681 13.30282,-6.9406 -5.78368,-0.57813 -11.56742,-1.15651 -17.35151,-1.73515 z"
         clip-path="url(#clipPath1256)"
         transform="matrix(0.67080637,0,0,0.44508288,23.052286,82.610538)" /></g><g
       inkscape:groupmode="layer"
       id="layer12"
       inkscape:label="WaterLine8"><path
         style="display:inline;fill:#94b8f4;fill-opacity:1;stroke-width:0.264583;paint-order:stroke markers fill"
         d="m 86.468433,306.20589 c 8.868551,-5.35005 21.207407,-12.77264 36.004667,-14.79689 14.79727,-2.02425 32.05203,1.34959 48.39142,-0.96409 16.3394,-2.31367 31.76265,-10.31448 39.81188,-14.36316 8.04924,-4.04868 8.72402,-4.14508 6.69951,-1.78328 -2.0245,2.3618 -6.74788,7.18158 -13.20651,11.37486 -6.45863,4.19329 -14.65223,7.75992 -24.19562,10.16987 -9.54339,2.40996 -20.43606,3.6631 -29.83487,4.67528 -9.39882,1.01218 -17.30323,1.78335 -24.1476,4.67531 -6.84437,2.89197 -12.62809,7.90453 -22.31603,10.41087 -9.687947,2.50634 -23.27969,2.50634 -27.376612,0.86753 -4.096922,-1.63881 1.301214,-4.91626 10.169765,-10.2663 z"
         id="path13170"
         inkscape:path-effect="#path-effect13172"
         inkscape:original-d="m 82.998052,308.27847 c 12.339114,-7.42233 24.677968,-14.84492 37.016548,-22.26775 17.25573,3.37423 34.51049,6.74806 51.76534,10.12171 15.42414,-8.00087 30.84739,-16.00168 46.27069,-24.00292 0.67506,-0.0961 1.34983,-0.19254 2.02434,-0.28921 -4.72329,4.82023 -9.44667,9.64001 -14.1704,14.45961 -8.19366,3.56703 -16.38727,7.13364 -24.5813,10.70009 -10.89285,1.25344 -21.78552,2.50658 -32.67868,3.75949 -7.90447,0.77145 -15.80888,1.54263 -23.71373,2.31354 -5.78368,5.01301 -11.5674,10.02557 -17.3515,15.03797 -13.592027,0 -27.18377,0 -40.776051,0 5.398622,-3.27732 10.796759,-6.55476 16.194743,-9.83253 z"
         clip-path="url(#clipPath1200)"
         transform="matrix(0.64112501,0,0,0.44576705,-3.4835586,74.233093)" /></g><g
       inkscape:groupmode="layer"
       id="layer13"
       inkscape:label="WaterLine9"><path
         style="display:inline;fill:#94b8f4;fill-opacity:1;stroke-width:0.264583;paint-order:stroke markers fill"
         d="m -55.476454,77.696167 c -0.04827,-3.277526 14.700512,-10.700116 30.558139,-9.735936 15.8576263,0.964179 32.8232067,10.314528 48.82522,12.242304 16.002013,1.927777 31.039689,-3.566758 38.558603,-6.072922 7.518913,-2.506165 7.518913,-2.024189 2.795401,0.674825 -4.723511,2.699015 -14.170255,7.615177 -23.03881,10.217928 -8.868555,2.602751 -17.158553,2.891937 -24.291998,2.843748 C 10.796655,87.817926 4.8201442,87.432345 -2.2651195,85.938202 -9.3503833,84.44406 -17.543987,81.841386 -29.063643,80.973761 c -11.519656,-0.867625 -26.364541,-6.7e-5 -26.412811,-3.277594 z"
         id="path13166"
         inkscape:original-d="m -70.27361,81.841283 c 14.749047,-7.422324 29.497829,-14.844913 44.246346,-22.267769 16.9665243,9.350989 33.9321048,18.701337 50.89776,28.051606 15.038539,-5.494488 30.076215,-10.989024 45.113925,-16.483933 2.64e-4,0.482261 2.64e-4,0.964237 0,1.445958 C 60.537563,77.50377 51.090819,82.419932 41.643622,87.335928 33.353554,87.62539 25.063556,87.914577 16.773125,88.203504 10.796639,87.818173 4.8201283,87.432591 -1.1567673,87.046738 -9.3504347,84.444222 -17.544039,81.841548 -25.738072,79.238559 c -14.845211,0.867857 -29.690096,1.735415 -44.535538,2.602724 z"
         inkscape:path-effect="#path-effect13168"
         clip-path="url(#clipPath1896)"
         transform="matrix(0.5849752,0,0,0.3781152,3.2755234,30.353285)" /></g><g
       inkscape:groupmode="layer"
       id="layer14"
       inkscape:label="WaterLine10"><path
         style="fill:#94b8f4;fill-opacity:1;stroke-width:0.264583;paint-order:stroke markers fill"
         d="m 175.82862,-6.6514119 c -7.32614,5.205414 -14.65233,10.4108715 -21.97857,15.6163582"
         id="path13282"
         inkscape:path-effect="#path-effect13284"
         inkscape:original-d="M 175.82862,-6.6514119 C 168.5027,-1.4456945 161.1765,3.7597582 153.85005,8.9649463" /></g><g
       inkscape:groupmode="layer"
       id="layer15"
       inkscape:label="WaterLine11"
       transform="matrix(0.84459937,0,0,0.54837581,40.6599,-0.57046305)"><path
         style="display:inline;fill:#94b8f4;fill-opacity:1;stroke-width:0.264583;paint-order:stroke markers fill"
         d="m 129.17237,31.088101 c 5.78385,-4.675279 14.94159,-11.808678 27.28073,-13.832943 12.33914,-2.024266 27.85879,1.060386 43.66799,-2.169074 15.8092,-3.22946 31.90722,-12.7725974 43.04125,-17.7370444 11.13403,-4.9644469 17.30333,-5.3500281 23.13539,-6.4104342 5.83205,-1.0604064 11.32657,-2.7955184 11.13368,-1.9279044 -0.1929,0.867615 -6.073,4.3378418 -10.70014,7.7118025 -4.62715,3.37396078 -8.00099,6.6514029 -14.65244,10.4591114 -6.65145,3.8077081 -16.58017,8.1454991 -26.79833,11.0374421 -10.21817,2.891944 -20.72526,4.337874 -32.24484,5.01267 -11.51958,0.674797 -24.05098,0.578401 -33.69084,1.831564 -9.63985,1.253163 -16.38752,3.855837 -22.70162,6.603189 -6.31409,2.747352 -12.19421,5.639215 -13.92939,5.976604 -1.73517,0.337389 0.67471,-1.879704 6.45856,-6.554983 z"
         id="path13323"
         clip-path="url(#clipPath1334)"
         inkscape:original-d="m 125.79844,33.546251 c 9.15801,-7.133134 18.31575,-14.266532 27.47322,-21.400195 15.52054,3.085039 31.04019,6.16969 46.55988,9.254139 16.09894,-9.543257 32.19696,-19.0863959 48.29504,-28.6299903 6.16981,-0.3853323 12.33911,-0.7709138 18.50828,-1.1567673 5.49502,-1.7349214 10.98954,-3.4700374 16.48393,-5.2054524 -5.8801,3.470635 -11.7602,6.9408677 -17.64069,10.410905 -3.37372,3.27783741 -6.74756,6.555279 -10.12172,9.8325219 -9.92886,4.3382281 -19.85758,8.6760191 -29.78676,13.0136321 -10.50725,1.446252 -21.01434,2.892182 -31.52191,4.337877 -12.53163,-0.09614 -25.06303,-0.19253 -37.59494,-0.289192 -6.74768,2.603043 -13.49535,5.205718 -20.24342,7.808179 -5.88009,2.892239 -11.76021,5.784101 -17.6407,8.675756 2.41024,-2.216917 4.82012,-4.434012 7.22979,-6.651413 z"
         inkscape:path-effect="#path-effect13325"
         transform="matrix(0.68246069,0,0,0.63333532,-32.770689,4.3221621)" /></g></g></svg>
