<?xml version="1.0" encoding="UTF-8" standalone="no"?>
<!-- Created with Inkscape (http://www.inkscape.org/) -->

<svg
   width="50mm"
   height="50mm"
   viewBox="0 0 50 50"
   version="1.1"
   id="svg36842"
   sodipodi:docname="WhiteFlower.svg"
   inkscape:version="1.2.2 (732a01da63, 2022-12-09)"
   xmlns:inkscape="http://www.inkscape.org/namespaces/inkscape"
   xmlns:sodipodi="http://sodipodi.sourceforge.net/DTD/sodipodi-0.dtd"
   xmlns="http://www.w3.org/2000/svg"
   xmlns:svg="http://www.w3.org/2000/svg">
  <sodipodi:namedview
     id="namedview36844"
     pagecolor="#ffffff"
     bordercolor="#cccccc"
     borderopacity="1"
     inkscape:showpageshadow="0"
     inkscape:pageopacity="1"
     inkscape:pagecheckerboard="0"
     inkscape:deskcolor="#d1d1d1"
     inkscape:document-units="mm"
     showgrid="false"
     inkscape:lockguides="true"
     inkscape:zoom="7.319248"
     inkscape:cx="62.643047"
     inkscape:cy="99.600396"
     inkscape:window-width="2560"
     inkscape:window-height="1377"
     inkscape:window-x="-8"
     inkscape:window-y="-8"
     inkscape:window-maximized="1"
     inkscape:current-layer="layer1" />
  <defs
     id="defs36839">
    <inkscape:path-effect
       effect="bspline"
       id="path-effect37505"
       is_visible="true"
       lpeversion="1"
       weight="33.333333"
       steps="2"
       helper_size="0"
       apply_no_weight="true"
       apply_with_weight="true"
       only_selected="false" />
    <inkscape:path-effect
       effect="bspline"
       id="path-effect37499"
       is_visible="true"
       lpeversion="1"
       weight="33.333333"
       steps="2"
       helper_size="0"
       apply_no_weight="true"
       apply_with_weight="true"
       only_selected="false" />
    <inkscape:path-effect
       effect="bspline"
       id="path-effect37493"
       is_visible="true"
       lpeversion="1"
       weight="33.333333"
       steps="2"
       helper_size="0"
       apply_no_weight="true"
       apply_with_weight="true"
       only_selected="false" />
    <inkscape:path-effect
       effect="bspline"
       id="path-effect37489"
       is_visible="true"
       lpeversion="1"
       weight="33.333333"
       steps="2"
       helper_size="0"
       apply_no_weight="true"
       apply_with_weight="true"
       only_selected="false" />
    <inkscape:path-effect
       effect="bspline"
       id="path-effect37485"
       is_visible="true"
       lpeversion="1"
       weight="33.333333"
       steps="2"
       helper_size="0"
       apply_no_weight="true"
       apply_with_weight="true"
       only_selected="false" />
    <inkscape:path-effect
       effect="bspline"
       id="path-effect37481"
       is_visible="true"
       lpeversion="1"
       weight="33.333333"
       steps="2"
       helper_size="0"
       apply_no_weight="true"
       apply_with_weight="true"
       only_selected="false" />
    <inkscape:path-effect
       effect="bspline"
       id="path-effect37477"
       is_visible="true"
       lpeversion="1"
       weight="33.333333"
       steps="2"
       helper_size="0"
       apply_no_weight="true"
       apply_with_weight="true"
       only_selected="false" />
    <inkscape:path-effect
       effect="bspline"
       id="path-effect37473"
       is_visible="true"
       lpeversion="1"
       weight="33.333333"
       steps="2"
       helper_size="0"
       apply_no_weight="true"
       apply_with_weight="true"
       only_selected="false" />
    <inkscape:path-effect
       effect="bspline"
       id="path-effect37469"
       is_visible="true"
       lpeversion="1"
       weight="33.333333"
       steps="2"
       helper_size="0"
       apply_no_weight="true"
       apply_with_weight="true"
       only_selected="false" />
    <inkscape:path-effect
       effect="bspline"
       id="path-effect37465"
       is_visible="true"
       lpeversion="1"
       weight="33.333333"
       steps="2"
       helper_size="0"
       apply_no_weight="true"
       apply_with_weight="true"
       only_selected="false" />
    <inkscape:path-effect
       effect="bspline"
       id="path-effect37457"
       is_visible="true"
       lpeversion="1"
       weight="33.333333"
       steps="2"
       helper_size="0"
       apply_no_weight="true"
       apply_with_weight="true"
       only_selected="false" />
    <inkscape:path-effect
       effect="bspline"
       id="path-effect37453"
       is_visible="true"
       lpeversion="1"
       weight="33.333333"
       steps="2"
       helper_size="0"
       apply_no_weight="true"
       apply_with_weight="true"
       only_selected="false" />
    <inkscape:path-effect
       effect="bspline"
       id="path-effect37395"
       is_visible="true"
       lpeversion="1"
       weight="33.333333"
       steps="2"
       helper_size="0"
       apply_no_weight="true"
       apply_with_weight="true"
       only_selected="false" />
  </defs>
  <g
     inkscape:label="FlowerCenter"
     inkscape:groupmode="layer"
     id="layer1">
    <ellipse
       style="fill:#fbf73e;fill-rule:evenodd;stroke-width:0.264583;fill-opacity:1"
       id="path36974"
       cx="24.462057"
       cy="25.356697"
       rx="5.5978999"
       ry="4.9588704" />
  </g>
  <g
     inkscape:groupmode="layer"
     id="layer19"
     inkscape:label="FlowerPetals"
     style="fill:#f6f6f6;fill-opacity:1">
    <path
       style="fill:#f6f6f6;fill-opacity:1;stroke-width:0.264583;paint-order:stroke markers fill"
       d="m 20.24946,22.147266 c 0.259077,-0.228952 0.777213,-0.686839 1.403879,-1.024249 0.626667,-0.33741 1.361681,-0.5543 1.765417,-0.650618 0.403737,-0.09632 0.476035,-0.07222 0.198766,-1.322294 -0.277268,-1.250074 -0.903825,-3.774377 -2.45815,-5.931356 -1.554326,-2.15698 -4.036507,-3.9463184 -5.271746,-3.4221048 -1.235239,0.5242138 -1.22319,3.3617938 -0.373562,5.9043388 0.849629,2.542544 2.536547,4.78976 3.422067,5.853021 0.885521,1.063261 0.969868,0.942765 1.012061,0.88249 0.04219,-0.06028 0.04219,-0.06028 0.301268,-0.289228 z"
       id="path37393"
       inkscape:path-effect="#path-effect37395"
       inkscape:original-d="m 19.990384,22.376217 c 0.5184,-0.457623 1.036536,-0.91551 1.554406,-1.373661 0.735309,-0.216634 1.470323,-0.433523 2.205088,-0.650682 0.07256,0.02437 0.144861,0.04846 0.216894,0.0723 -0.62633,-2.52419 -1.252887,-5.048492 -1.879747,-7.573211 -2.482014,-1.789145 -4.964195,-3.5784838 -7.446689,-5.3681227 0.01231,2.8380167 0.02436,5.6755967 0.03615,8.5130837 1.687251,2.247572 3.374169,4.494788 5.060857,6.741785 0.08461,-0.120235 0.16896,-0.240729 0.253043,-0.36149 z"
       sodipodi:nodetypes="scccccccss" />
    <path
       style="fill:#f6f6f6;fill-opacity:1;stroke-width:0.264583;paint-order:stroke markers fill"
       d="m 25.135744,20.478432 c 0.229098,0.05426 0.686985,0.162707 1.144881,0.307331 0.457896,0.144624 0.915775,0.325366 1.156769,0.421781 0.240993,0.09641 0.265085,0.10846 1.005973,-1.174888 0.740888,-1.283349 2.198867,-3.861924 2.37972,-6.048844 0.180853,-2.18692 -0.915643,-3.982284 -2.205059,-4.2113754 -1.289416,-0.2290918 -2.771495,1.1083944 -3.663193,3.1328864 -0.891697,2.024492 -1.192926,4.73555 -1.180722,6.103112 0.0122,1.367561 0.337537,1.391661 0.578523,1.4037 0.240986,0.01204 0.397628,0.01204 0.475818,0.01204 0.07819,0 0.07819,-3e-6 0.30729,0.05426 z"
       id="path37451"
       inkscape:path-effect="#path-effect37453"
       inkscape:original-d="m 24.906645,20.424172 c 0.458152,0.108712 0.916039,0.217159 1.373662,0.325341 0.458159,0.181013 0.916039,0.361754 1.37366,0.542235 0.02437,0.01231 0.04846,0.02436 0.0723,0.03615 1.458301,-2.578414 2.916279,-5.15699 4.374025,-7.735881 -1.096277,-1.795171 -2.192774,-3.590534 -3.289557,-5.3861982 -1.481873,1.3378035 -2.963952,2.6752892 -4.446324,4.0125362 -0.300983,2.711492 -0.602212,5.42255 -0.903725,8.13352 0.325613,0.02436 0.650946,0.04847 0.976023,0.0723 0.156913,2.65e-4 0.313555,2.65e-4 0.469936,0 z"
       sodipodi:nodetypes="sccccccccss" />
    <path
       style="fill:#f6f6f6;fill-opacity:1;stroke-width:0.264583;paint-order:stroke markers fill"
       d="m 28.720603,22.258971 c 0.198742,0.280233 0.451778,0.768232 0.614509,1.045349 0.16273,0.277117 0.235027,0.343389 1.897855,-0.159848 1.662827,-0.503237 4.916106,-1.575614 6.491556,-3.26846 1.575449,-1.692846 1.473032,-4.006289 0.198838,-4.825845 -1.274194,-0.819555 -3.720176,-0.144801 -5.666338,1.105417 -1.946161,1.250219 -3.392066,3.075674 -3.979349,4.1181 -0.587282,1.042425 -0.316169,1.30149 -0.108288,1.467123 0.207881,0.165633 0.352475,0.23793 0.551217,0.518164 z"
       id="path37455"
       inkscape:path-effect="#path-effect37457"
       inkscape:original-d="m 28.666138,22.050876 c 0.253307,0.488276 0.506343,0.976275 0.759128,1.464034 0.07257,0.06654 0.144862,0.132811 0.216896,0.198819 3.253737,-1.072177 6.507015,-2.144554 9.760222,-3.217259 -0.102159,-2.313316 -0.204577,-4.626758 -0.307265,-6.940604 -2.445865,0.675059 -4.891848,1.349813 -7.338242,2.024343 -1.445724,1.825825 -2.891629,3.65128 -4.337877,5.47657 0.271386,0.259337 0.542499,0.518401 0.813351,0.777203 0.144865,0.07256 0.289457,0.144861 0.433787,0.216894 z"
       sodipodi:nodetypes="ccccccccc" />
    <path
       style="fill:#f6f6f6;fill-opacity:1;stroke-width:0.264583;paint-order:stroke markers fill"
       d="m 30.027744,24.906772 c -0.01206,0.289319 -0.03616,0.867701 -0.123539,1.316485 -0.08738,0.448784 -0.237997,0.768086 -0.298065,0.936822 -0.06007,0.168735 -0.02994,0.18681 1.467255,0.515109 1.497198,0.3283 4.461294,0.966906 6.618083,0.698753 2.156788,-0.268152 3.506297,-1.442948 3.425107,-2.461066 -0.08119,-1.018117 -1.593363,-1.879634 -3.780448,-2.274361 -2.187086,-0.394727 -5.048821,-0.32243 -6.473809,-0.219861 -1.424988,0.102569 -1.412938,0.235114 -1.310422,0.439969 0.102516,0.204854 0.295307,0.481992 0.391598,0.620411 0.09629,0.13842 0.09629,0.13842 0.08424,0.427739 z"
       id="path37463"
       inkscape:path-effect="#path-effect37465"
       inkscape:original-d="m 30.039799,24.617453 c -0.02384,0.578649 -0.04793,1.157032 -0.0723,1.735151 -0.150359,0.319587 -0.300973,0.638889 -0.451861,0.957948 0.03039,0.01834 0.06051,0.03641 0.09037,0.05422 2.964542,0.638909 5.928638,1.277515 8.892649,1.915895 1.349853,-1.174601 2.699362,-2.349398 4.048684,-3.524526 -1.511996,-0.861302 -3.024169,-1.722819 -4.536696,-2.584652 -2.861588,0.07256 -5.723323,0.144861 -8.585382,0.216894 0.0123,0.132814 0.02437,0.265357 0.03615,0.397639 0.193061,0.277412 0.385853,0.554549 0.578382,0.831426 z"
       sodipodi:nodetypes="sccccccccss" />
    <path
       style="fill:#f6f6f6;fill-opacity:1;stroke-width:0.264583;paint-order:stroke markers fill"
       d="m 29.12704,28.126914 c -0.18978,0.183756 -0.569334,0.551262 -0.810335,0.786238 -0.241001,0.234976 -0.343421,0.337396 0.442943,1.560609 0.786364,1.223213 2.461202,3.56678 4.208438,4.599891 1.747237,1.033111 3.566663,0.75598 4.066701,-0.231936 0.500038,-0.987915 -0.319306,-2.686849 -1.753163,-4.087723 -1.433856,-1.400875 -3.482258,-2.503398 -4.584949,-2.98849 -1.10269,-0.485092 -1.259333,-0.352548 -1.33163,-0.219848 -0.0723,0.1327 -0.06025,0.265245 -0.05423,0.331375 0.006,0.06613 0.006,0.06613 -0.18377,0.249884 z"
       id="path37467"
       inkscape:path-effect="#path-effect37469"
       inkscape:original-d="m 29.31682,27.943159 c -0.379299,0.36778 -0.758854,0.735285 -1.138691,1.102544 -0.102161,0.10269 -0.204581,0.205109 -0.307268,0.307267 1.675201,2.343969 3.350039,4.687535 5.02471,7.030974 1.819797,-0.276883 3.639224,-0.554014 5.458493,-0.831426 -0.819128,-1.698771 -1.638472,-3.397704 -2.458129,-5.097004 -2.048218,-1.102301 -4.09662,-2.204824 -6.145325,-3.307632 -0.156385,0.132813 -0.313029,0.265356 -0.469938,0.39764 0.0123,0.132813 0.02437,0.265356 0.03615,0.397637 z"
       sodipodi:nodetypes="scccccccss" />
    <path
       style="fill:#f6f6f6;fill-opacity:1;stroke-width:0.264583;paint-order:stroke markers fill"
       d="m 27.467317,29.443289 c -0.361508,0.174721 -0.873609,0.439809 -1.225975,0.563359 -0.352366,0.123551 -0.545153,0.105478 -0.533236,1.530506 0.01192,1.425028 0.228803,4.292734 1.039307,6.015794 0.810505,1.723059 2.214233,2.301419 3.156953,1.840526 0.942719,-0.460894 1.424686,-1.961014 1.072335,-3.84976 -0.352352,-1.888746 -1.539209,-4.166063 -2.238109,-5.262778 -0.698901,-1.096715 -0.909766,-1.012369 -1.271275,-0.837647 z"
       id="path37471"
       inkscape:path-effect="#path-effect37473"
       inkscape:original-d="m 27.617819,29.35297 c -0.511846,0.265357 -1.023947,0.530444 -1.536332,0.795277 -0.192534,-0.01781 -0.385321,-0.03588 -0.578383,-0.05422 0.217162,2.868139 0.434048,5.735845 0.650681,8.603456 1.404078,0.578659 2.807806,1.157019 4.211356,1.73515 0.482261,-1.499949 0.964228,-3.000069 1.44596,-4.500547 -1.186652,-2.277167 -2.373509,-4.554485 -3.560677,-6.832156 -0.210605,0.08461 -0.421471,0.168959 -0.632605,0.253042 z"
       sodipodi:nodetypes="cccccccc" />
    <path
       style="fill:#f6f6f6;fill-opacity:1;stroke-width:0.264583;paint-order:stroke markers fill"
       d="m 24.937008,30.268726 c -0.34339,0.02412 -0.747053,0.02412 -1.117565,-0.006 -0.370512,-0.0301 -0.707894,-0.09034 -0.982022,-0.177649 -0.274128,-0.0873 -0.484984,-0.201768 -1.150926,0.927882 -0.665942,1.129649 -1.786514,3.503334 -1.804474,5.657354 -0.01796,2.154021 1.066467,4.087915 2.226163,4.193219 1.159696,0.105304 2.394739,-1.617732 3.030386,-3.708281 0.635648,-2.09055 0.671795,-4.548587 0.548393,-5.753723 -0.123403,-1.205137 -0.406565,-1.156939 -0.749955,-1.132822 z"
       id="path37475"
       inkscape:path-effect="#path-effect37477"
       inkscape:original-d="m 24.997017,30.292844 c -0.403399,2.65e-4 -0.807062,2.65e-4 -1.21099,0 -0.337133,-0.05999 -0.674516,-0.120232 -1.012171,-0.180745 -0.210614,-0.114212 -0.421469,-0.228677 -0.632607,-0.343415 -1.120377,2.374095 -2.240949,4.747779 -3.361856,7.121346 1.084757,1.934275 2.169183,3.868168 3.253409,5.80191 1.235378,-1.722869 2.470421,-3.445905 3.70527,-5.169303 0.03641,-2.457912 0.07256,-4.915949 0.108447,-7.374389 -0.282908,0.04846 -0.566069,0.09666 -0.849502,0.144596 z"
       sodipodi:nodetypes="ccccccccc" />
    <path
       style="fill:#f6f6f6;fill-opacity:1;stroke-width:0.264583;paint-order:stroke markers fill"
       d="m 19.122161,26.480613 c -0.02687,-0.344698 -0.08061,-1.034073 0.02719,-1.737591 0.107799,-0.703517 0.377057,-1.421002 0.543179,-1.801376 0.166121,-0.380373 0.228885,-0.423595 -0.936235,-0.954687 -1.16512,-0.531091 -3.558002,-1.550302 -6.216049,-1.607553 -2.6580464,-0.05725 -5.5810566,0.847718 -5.9060251,2.149644 -0.3249685,1.301925 1.9481649,3.000418 4.4898941,3.852483 2.54173,0.852065 5.351648,0.857758 6.733738,0.79069 1.38209,-0.06707 1.336646,-0.206955 1.313913,-0.27693 -0.02273,-0.06998 -0.02274,-0.06998 -0.04961,-0.41468 z"
       id="path37495"
       inkscape:path-effect="#path-effect37499"
       inkscape:original-d="m 19.149031,26.825311 c -0.05337,-0.689425 -0.1071,-1.378801 -0.161215,-2.068121 0.269642,-0.717569 0.538901,-1.435054 0.807794,-2.152504 0.06314,-0.04327 0.125898,-0.0865 0.188296,-0.12967 -2.392655,-1.019327 -4.785537,-2.038537 -7.178934,-3.057758 -2.9227549,0.904953 -5.845765,1.809923 -8.7692022,2.714963 2.2736372,1.698547 4.5467698,3.397041 6.8196732,5.095683 2.810402,0.0056 5.62032,0.01133 8.429925,0.01708 -0.04508,-0.139942 -0.09052,-0.279829 -0.136334,-0.419667 z"
       sodipodi:nodetypes="scccccccss"
       inkscape:transform-center-x="-0.36148976"
       inkscape:transform-center-y="-1.4098103" />
    <path
       style="fill:#f6f6f6;fill-opacity:1;stroke-width:0.264583;paint-order:stroke markers fill"
       d="m 21.902691,29.749696 c -0.314082,-0.158656 -0.888382,-0.441974 -1.389073,-0.904989 -0.500691,-0.463014 -0.922476,-1.09924 -1.151177,-1.474011 -0.228702,-0.37477 -0.256664,-0.475778 -1.375346,0.166041 -1.118683,0.641819 -3.327917,2.027663 -4.897502,4.178227 -1.569584,2.150565 -2.499189,5.065834 -1.617145,6.077077 0.882045,1.011242 3.575457,0.118187 5.724478,-1.500103 2.149022,-1.61829 3.750323,-3.956849 4.515323,-5.132696 0.765,-1.175848 0.687447,-1.180062 0.62241,-1.198751 -0.06504,-0.01869 -0.117885,-0.05214 -0.431968,-0.210795 z"
       id="path37501"
       inkscape:path-effect="#path-effect37505"
       inkscape:original-d="m 22.163654,29.874727 c -0.575099,-0.283579 -1.149398,-0.566897 -1.725129,-0.851056 -0.425536,-0.642019 -0.847321,-1.278245 -1.276463,-1.925435 -0.02814,-0.102359 -0.05611,-0.203368 -0.08455,-0.305437 -2.208902,1.386066 -4.418136,2.77191 -6.62797,4.157699 -0.929473,2.915049 -1.859078,5.830318 -2.7888699,8.745978 2.6937439,-0.893438 5.3871559,-1.786492 8.0805579,-2.679274 1.605025,-2.343346 3.206327,-4.681905 4.81344,-7.029602 -0.07743,-0.004 -0.154983,-0.0082 -0.232665,-0.01264 -0.05242,-0.03309 -0.105271,-0.06654 -0.158347,-0.100232 z"
       sodipodi:nodetypes="scccccccss"
       inkscape:transform-center-x="0.49826095"
       inkscape:transform-center-y="-1.599713" />
  </g>
</svg>
